<svg xmlns="http://www.w3.org/2000/svg" viewBox="0 0 500 500"><g id="freepik--background-complete--inject-86"><rect x="39.43" y="32.63" width="96.01" height="139.16" style="fill:#e0e0e0"></rect><rect x="34.62" y="32.63" width="96.01" height="139.16" style="fill:#f5f5f5"></rect><rect x="46.55" y="47.7" width="72.15" height="109.02" style="fill:#fff"></rect><path d="M118.7,156.72s0-.19,0-.54,0-.87,0-1.54c0-1.37,0-3.38,0-6,0-5.23,0-12.84-.06-22.46,0-19.22-.07-46.44-.12-78.5l.24.24L46.56,48h0l.26-.26c0,41.13,0,79.05-.06,109l-.2-.21,52.51.11,14.51,0,3.81,0c.86,0,1.32,0,1.32,0l-1.27,0-3.77,0-14.47.06-52.64.11h-.21v-.21c0-30,0-67.89-.05-109v-.26h.27l72.14,0h.24v.24c0,32.12-.09,59.4-.12,78.66,0,9.59,0,17.19-.06,22.4,0,2.59,0,4.58,0,5.93,0,.66,0,1.17,0,1.52S118.7,156.72,118.7,156.72Z" style="fill:#e0e0e0"></path><path d="M130.9,32.63a18.48,18.48,0,0,1-1.71,2.49c-1.12,1.49-2.7,3.52-4.51,5.71s-3.49,4.14-4.75,5.52a15.67,15.67,0,0,1-2.11,2.15,19.3,19.3,0,0,1,1.83-2.39l4.63-5.61,4.62-5.61A16.89,16.89,0,0,1,130.9,32.63Z" style="fill:#e0e0e0"></path><path d="M119.07,156.37a89.16,89.16,0,0,0,12.58,15.74" style="fill:#fff"></path><path d="M131.65,172.11a15.12,15.12,0,0,1-2.19-2,70.33,70.33,0,0,1-4.75-5.35,68.89,68.89,0,0,1-4.18-5.81,14.73,14.73,0,0,1-1.46-2.58,20.09,20.09,0,0,1,1.77,2.37c1,1.48,2.54,3.52,4.28,5.69s3.39,4.07,4.61,5.43A20.14,20.14,0,0,1,131.65,172.11Z" style="fill:#e0e0e0"></path><path d="M34.6,171.68l12.58-15.52" style="fill:#fff"></path><path d="M47.18,156.16a96.69,96.69,0,0,1-6.08,7.93,95.11,95.11,0,0,1-6.5,7.59,97.26,97.26,0,0,1,6.09-7.92A95.5,95.5,0,0,1,47.18,156.16Z" style="fill:#e0e0e0"></path><path d="M34.62,32.63a88.61,88.61,0,0,1,6.1,7.3,88,88,0,0,1,5.7,7.62,85.22,85.22,0,0,1-6.11-7.3A89,89,0,0,1,34.62,32.63Z" style="fill:#e0e0e0"></path><path d="M94,102.35A5.94,5.94,0,1,1,88,96.42,5.93,5.93,0,0,1,94,102.35Z" style="fill:#e0e0e0"></path><path d="M97.16,81.46A4.44,4.44,0,1,1,92.73,77,4.43,4.43,0,0,1,97.16,81.46Z" style="fill:#e0e0e0"></path><path d="M79.9,88.29a3.21,3.21,0,1,1-3.21-3.21A3.21,3.21,0,0,1,79.9,88.29Z" style="fill:#e0e0e0"></path><path d="M97.59,121.92a2,2,0,1,1,0-2.82A2,2,0,0,1,97.59,121.92Z" style="fill:#e0e0e0"></path><path d="M70.57,106.13a3.21,3.21,0,1,1-3.21-3.21A3.2,3.2,0,0,1,70.57,106.13Z" style="fill:#e0e0e0"></path><path d="M88,102.35c.2-.09,2.19,3.73,4.43,8.53s3.91,8.77,3.71,8.87S94,116,91.75,111.22,87.84,102.45,88,102.35Z" style="fill:#e0e0e0"></path><path d="M87.57,103c0,.22-4.3,1-9.67,1.84s-9.75,1.26-9.78,1,4.29-1,9.66-1.83S87.53,102.74,87.57,103Z" style="fill:#e0e0e0"></path><path d="M87.16,100.11c-.14.15-2.89-2.09-5.66-5.47S77.05,88.13,77.24,88s2.14,2.79,4.88,6.1S87.32,99.93,87.16,100.11Z" style="fill:#e0e0e0"></path><path d="M92.73,81.46h0s0,0,0,0v.17l-.1.57c-.15.67-.3,1.36-.46,2.09-.4,1.76-1,4.18-1.68,6.85-1.37,5.34-2.51,9.65-2.71,9.61s.57-4.46,1.94-9.81c.68-2.67,1.36-5.07,1.91-6.8.27-.86.51-1.56.7-2a5.33,5.33,0,0,1,.24-.54l.1-.13,0,0s.08,0,0,0S92.73,81.46,92.73,81.46Z" style="fill:#e0e0e0"></path><polygon points="426.26 30.18 434.12 53.23 432.97 53.62 425.88 30.93 426.26 30.18" style="fill:#e0e0e0"></polygon><polygon points="438.05 74.2 439 77.02 434.94 81.22 464.06 167.57 478.56 162.68 449.29 75.89 443.87 75.49 442.88 72.57 438.05 74.2" style="fill:#ebebeb"></polygon><path d="M438.05,74.2s.09,0,.28-.12l.9-.33,3.62-1.29.1,0,0,.11c.29.85.63,1.83,1,2.92l-.12-.09,5.42.35h.12l0,.11c5.69,16.52,16.72,49,29.46,86.73l.12.35-.36.12-4.75,1.6-9.75,3.29-.35.12-.12-.35c-13.17-39.1-24.14-71.89-28.91-86.42l0-.08.06-.07L438.94,77l0,.08c-.29-.94-.52-1.65-.68-2.16s-.2-.69-.19-.68l.28.7c.17.49.42,1.18.75,2.09l0,0,0,0-4,4.26,0-.15c5,14.45,16.14,47.18,29.33,86.27l-.46-.23,9.74-3.29,4.76-1.6-.24.47C465.49,125.05,454.6,92.54,449.12,76l.16.12-5.42-.44h-.09l0-.08-1-2.94.14.07-3.6,1.15-.94.29Z" style="fill:#e0e0e0"></path><rect x="443.46" y="155.25" width="53.63" height="13.93" transform="translate(466.88 659.67) rotate(-108.64)" style="fill:#ebebeb"></rect><rect x="476.7" y="176.36" width="3.33" height="20.81" rx="0.81" transform="translate(454.3 699.73) rotate(-108.64)" style="fill:#e0e0e0"></rect><path d="M486.87,181.46a1.86,1.86,0,0,1,1.87,1.26l.33,1a1.87,1.87,0,0,1-1.17,2.36L470.36,192A1.87,1.87,0,0,1,468,190.8l-.33-1a1.86,1.86,0,0,1,1.17-2.36l17.54-5.92A1.63,1.63,0,0,1,486.87,181.46Zm.52,1.72a.45.45,0,0,0-.56-.28l-17.53,5.92a.43.43,0,0,0-.28.55l.33,1a.45.45,0,0,0,.22.25.42.42,0,0,0,.33,0l17.54-5.91a.44.44,0,0,0,.27-.56Z" style="fill:#e0e0e0"></path><rect x="441.28" y="157.68" width="55.83" height="3.73" transform="translate(467.97 655.12) rotate(-108.64)" style="fill:#e0e0e0"></rect><path d="M462.48,131.6l18.3,54.25-4.89,1.65-18.3-54.25ZM479,185l-17.38-51.54-2.19.73,17.39,51.55Z" style="fill:#e0e0e0"></path><polygon points="448.81 76.78 467.92 133.43 455.01 137.78 435.95 81.35 439.92 77.58 438.77 74.15 442.19 73.09 443.1 76.09 448.81 76.78" style="fill:#f5f5f5"></polygon><polygon points="455.78 141.03 454.58 137.48 457.8 133.93 462.88 132.22 467.69 132.76 468.98 136.57 455.78 141.03" style="fill:#e0e0e0"></polygon><path d="M462.8,131.49l5.42.61,1.66,4.92-14.55,4.91-1.56-4.62,3.63-4Zm4.36,1.93L463,133l-4.75,1.6-2.81,3.1.84,2.47,11.84-4Z" style="fill:#e0e0e0"></path><path d="M432.46,53.24h2.83a.77.77,0,0,1,.77.77v1.64a.77.77,0,0,1-.77.77h-2.83a0,0,0,0,1,0,0V53.24a0,0,0,0,1,0,0Z" transform="translate(521.12 483.83) rotate(-108.64)" style="fill:#ebebeb"></path><rect x="470.05" y="151.75" width="2.71" height="26.69" rx="0.65" transform="translate(465.65 664.54) rotate(-108.64)" style="fill:#ebebeb"></rect><path d="M482.94,159.08a1.68,1.68,0,0,1,.82.17,1.66,1.66,0,0,1,.83.95l.27.8a1.65,1.65,0,0,1-1,2.08L460.31,171a1.65,1.65,0,0,1-2.09-1l-.27-.79a1.67,1.67,0,0,1,.08-1.26,1.69,1.69,0,0,1,1-.83l23.52-7.93A1.72,1.72,0,0,1,482.94,159.08Zm-23.15,10.6h.06l23.52-7.94a.22.22,0,0,0,.13-.28l-.26-.79a.25.25,0,0,0-.11-.13.24.24,0,0,0-.17,0l-23.52,7.93a.26.26,0,0,0-.14.28l.27.8A.23.23,0,0,0,459.79,169.68Z" style="fill:#e0e0e0"></path><path d="M468.74,133.19c.07.2-2,1.06-4.55,1.93s-4.73,1.42-4.8,1.23,2-1.06,4.56-1.93S468.68,133,468.74,133.19Z" style="fill:#fff"></path><path d="M471.35,140.92c.07.2-1.35.85-3.15,1.46s-3.33,1-3.39.75,1.34-.84,3.15-1.45S471.29,140.73,471.35,140.92Z" style="fill:#fff"></path><path d="M473.52,147.36c.07.19-2,1-4.56,1.92s-4.73,1.42-4.79,1.23,2-1.06,4.56-1.93S473.45,147.16,473.52,147.36Z" style="fill:#fff"></path><path d="M476.13,155.09c.06.19-1.35.84-3.15,1.45s-3.33,1-3.4.76,1.35-.85,3.16-1.46S476.06,154.89,476.13,155.09Z" style="fill:#fff"></path><path d="M463.68,118.19c.07.19-2,1-4.56,1.92s-4.72,1.42-4.79,1.23,2-1.06,4.56-1.93S463.61,118,463.68,118.19Z" style="fill:#e0e0e0"></path><path d="M466.29,125.92c.06.19-1.35.85-3.15,1.45s-3.33.95-3.4.76,1.35-.85,3.16-1.46S466.22,125.72,466.29,125.92Z" style="fill:#e0e0e0"></path><path d="M458.38,102.48c.07.2-2,1.06-4.55,1.93s-4.73,1.42-4.8,1.23,2-1.06,4.56-1.93S458.32,102.29,458.38,102.48Z" style="fill:#e0e0e0"></path><path d="M461,110.22c.07.19-1.34.84-3.15,1.45s-3.33,1-3.39.75,1.34-.84,3.15-1.45S460.93,110,461,110.22Z" style="fill:#e0e0e0"></path><path d="M453.17,87c.07.19-2,1-4.56,1.92s-4.73,1.42-4.79,1.23,2-1.06,4.56-1.93S453.1,86.83,453.17,87Z" style="fill:#e0e0e0"></path><path d="M455.78,94.76c.06.19-1.35.85-3.16,1.45s-3.32,1-3.39.76,1.35-.85,3.16-1.46S455.71,94.56,455.78,94.76Z" style="fill:#e0e0e0"></path><rect x="439.42" y="68.55" width="1.82" height="8.69" rx="0.44" transform="translate(511.98 513.44) rotate(-108.64)" style="fill:#ebebeb"></rect><path d="M437,74l-4.6-16.46a1.16,1.16,0,0,1,.75-1.42l2.74-.92a1.16,1.16,0,0,1,1.46.67l6.23,15.53Z" style="fill:#ebebeb"></path><path d="M443.4,71c.06.19-1.36.85-3.18,1.46s-3.35,1-3.42.76,1.36-.85,3.18-1.46S443.33,70.76,443.4,71Z" style="fill:#e0e0e0"></path><path d="M443.64,72.74c.07.2-1.28.83-3,1.41s-3.19.9-3.25.71,1.28-.83,3-1.41S443.58,72.55,443.64,72.74Z" style="fill:#e0e0e0"></path><path d="M58.88,386.61c-4.38-2.26-9.53-2.55-14.39-1.75-2.61.43-5.33,1.21-7.11,3.17s-2.11,5.42-.07,7.1a6.74,6.74,0,0,0,4.48,1.14c3.8,0,8-.72,11.06,1.57,1.74,1.31,2.89,3.48,5,4.12a4.9,4.9,0,0,0,5.39-2.4,8.36,8.36,0,0,0,.61-6.18A9.43,9.43,0,0,0,58.88,386.61Z" style="fill:#ebebeb"></path><path d="M68.91,367.25c-2.68,3.82-7.88,2.55-10.29.22s-3.43-5.71-4.36-8.94c-2.12-7.37-4.26-15.1-2.68-22.6a12.57,12.57,0,0,1,2.88-6.15,6.57,6.57,0,0,1,6.22-2.07c2.63.69,4.26,3.26,5.43,5.71a53.83,53.83,0,0,1,5.33,23.12c0,3.73-.43,7.63-2.53,10.71" style="fill:#ebebeb"></path><path d="M76.26,372.73c-2.9-3.45-3.46-8.48-2.16-12.8s4.21-8,7.58-11a40.91,40.91,0,0,1,13.58-8,14.57,14.57,0,0,1,6.1-1,6.43,6.43,0,0,1,5.13,3.1c1.43,2.73.06,6-1.42,8.73a103.5,103.5,0,0,1-8.92,13.58c-2.68,3.45-5.74,6.85-9.81,8.41s-8.31,1.37-10.47-1.46" style="fill:#ebebeb"></path><path d="M69.09,424.92a8.51,8.51,0,0,1-.24-1.74c-.12-1.26-.28-2.85-.46-4.74a66.67,66.67,0,0,0-1.07-6.95,53.24,53.24,0,0,0-2.52-8.21,30.58,30.58,0,0,0-4.2-7.43,15.66,15.66,0,0,0-5.3-4.4,14.72,14.72,0,0,0-4.46-1.39,8.83,8.83,0,0,1-1.73-.25,8,8,0,0,1,1.76,0A13.65,13.65,0,0,1,55.53,391a15.7,15.7,0,0,1,5.59,4.45A29.47,29.47,0,0,1,65.46,403,50.64,50.64,0,0,1,68,411.35a56.35,56.35,0,0,1,.92,7c.15,2,.21,3.64.24,4.77A8.26,8.26,0,0,1,69.09,424.92Z" style="fill:#e0e0e0"></path><path d="M68.77,421.27a3.14,3.14,0,0,1,0-.8c0-.61,0-1.37,0-2.31,0-2,0-4.9-.11-8.47-.17-7.15-.79-14.84-2-25.69-1.12-10.2-2.64-22.08-4.23-29.79-.34-1.76-.69-3.34-1-4.72s-.57-2.58-.83-3.55L60,343.7a4.2,4.2,0,0,1-.14-.8,4.07,4.07,0,0,1,.28.76c.18.58.4,1.31.67,2.21s.6,2.14.95,3.52.74,3,1.11,4.71a260.89,260.89,0,0,1,4.45,27.64c1.2,10.87,1.73,20.77,1.78,27.94,0,3.58,0,6.49-.13,8.49,0,.93-.1,1.7-.14,2.3A4.17,4.17,0,0,1,68.77,421.27Z" style="fill:#e0e0e0"></path><path d="M68.72,402.18a15.32,15.32,0,0,1,0-2.41c.08-1.54.3-3.78.73-6.52a86.88,86.88,0,0,1,2.12-9.51,78.58,78.58,0,0,1,4-11.24,60.13,60.13,0,0,1,11.67-18.18A29.36,29.36,0,0,1,90,351.77c.42-.36.79-.71,1.17-1l1.07-.73a16,16,0,0,1,2-1.3c.12.16-2.87,1.92-6.64,5.93a63.21,63.21,0,0,0-11.38,18.11,87.62,87.62,0,0,0-4,11.15c-1,3.49-1.73,6.7-2.26,9.41s-.78,4.92-1,6.46A15.46,15.46,0,0,1,68.72,402.18Z" style="fill:#e0e0e0"></path><polygon points="87.17 435.86 85.26 462.07 51.59 462.07 49.68 435.86 87.17 435.86" style="fill:#e0e0e0"></polygon><rect x="45.66" y="425.53" width="44.76" height="10.33" style="fill:#e0e0e0"></rect><polygon points="90.42 461.06 90.42 463.93 88.32 463.93 46.4 463.93 46.4 461.06 90.42 461.06" style="fill:#ebebeb"></polygon><polygon points="86.26 468.97 88.32 463.93 48 463.93 50.41 468.97 86.26 468.97" style="fill:#e0e0e0"></polygon><path d="M50.3,444.42s.05.09.16.24l.5.67,2,2.51L53,448l.08-.11,4.82-6.67h-.27l4.74,6.72.15.21.16-.2c1.76-2.08,3.66-4.34,5.63-6.69H68c.09.13.2.26.31.39l5,6.31.17.21.15-.22,4.75-6.72-.28,0L84,447.85l.1.12.08-.14L86,444.76l.47-.82a1.56,1.56,0,0,0,.14-.29s-.07.08-.19.26-.31.46-.52.79c-.47.73-1.12,1.74-1.92,3h.18L78.4,441l-.15-.17-.13.18-4.79,6.69h.32c-1.59-2-3.27-4.13-5-6.32l-.31-.39-.16-.2-.16.2-5.61,6.71h.31L57.91,441l-.14-.19-.13.19-4.72,6.74h.17l-2-2.45-.55-.63A1.32,1.32,0,0,0,50.3,444.42Z" style="fill:#f5f5f5"></path><path d="M49.21,435.68c0,.12,8.43.21,18.84.21s18.84-.09,18.84-.21-8.43-.2-18.84-.2S49.21,435.57,49.21,435.68Z" style="fill:#f5f5f5"></path><path d="M47.51,464.21c0,.11,9.16.21,20.47.21s20.48-.1,20.48-.21S79.29,464,68,464,47.51,464.09,47.51,464.21Z" style="fill:#f5f5f5"></path></g><g id="freepik--Floor--inject-86"><path d="M461.87,469.87c0,.14-96.21.26-214.86.26S32.13,470,32.13,469.87s96.19-.26,214.88-.26S461.87,469.72,461.87,469.87Z" style="fill:#263238"></path></g><g id="freepik--character-2--inject-86"><rect x="99.4" y="56.72" width="287.47" height="412.54" rx="12.83" style="fill:#e0e0e0"></rect><path d="M374,469.26l.89-.06a7.48,7.48,0,0,0,1.1-.13,9.58,9.58,0,0,0,1.51-.34,12.81,12.81,0,0,0,7.83-6.41,13.2,13.2,0,0,0,1.19-3.41,19.51,19.51,0,0,0,.24-4c0-2.83,0-5.93,0-9.28,0-6.71,0-14.45,0-23.17,0-34.87,0-85.32-.09-147.66,0-31.17,0-65.31,0-102q0-27.5,0-56.81,0-14.64,0-29.7V71.14a20.49,20.49,0,0,0-.2-3.77,12,12,0,0,0-1.19-3.55,12.78,12.78,0,0,0-5.19-5.34,13.65,13.65,0,0,0-3.56-1.28,19.38,19.38,0,0,0-3.82-.24H112.26A12.54,12.54,0,0,0,99.89,67.22a21.72,21.72,0,0,0-.23,4.36V188.24c0,44.86,0,88.13,0,129.35s0,80.38,0,117q0,6.87,0,13.62V455a22.53,22.53,0,0,0,.15,3.3,12.54,12.54,0,0,0,10.71,10.64,21.39,21.39,0,0,0,3.21.13h58.57l147.65.09,40.14,0,10.44,0,3.56,0s-1.21,0-3.56,0l-10.44,0-40.14.05-147.65.08-48.93,0h-9.64a21.21,21.21,0,0,1-3.27-.14,13.06,13.06,0,0,1-10.15-7.74,12.61,12.61,0,0,1-.91-3.24,21.12,21.12,0,0,1-.16-3.36V434.63c0-36.66,0-75.83,0-117s0-84.49,0-129.35q0-33.63,0-68.42V71.58a22.37,22.37,0,0,1,.24-4.46,13.07,13.07,0,0,1,12.88-10.66H372.67a19.09,19.09,0,0,1,3.91.25,14.36,14.36,0,0,1,3.7,1.33,13.26,13.26,0,0,1,5.39,5.54,12.73,12.73,0,0,1,1.23,3.69,20.82,20.82,0,0,1,.21,3.85q0,7.62,0,15.16V116q0,29.3,0,56.81c0,36.65,0,70.79,0,102,0,62.34-.06,112.79-.08,147.66,0,8.72,0,16.46,0,23.17,0,3.35,0,6.45,0,9.28a19.73,19.73,0,0,1-.25,4.05,13.32,13.32,0,0,1-1.22,3.44,13,13,0,0,1-4,4.53,12.72,12.72,0,0,1-3.94,1.88,10.05,10.05,0,0,1-1.52.33,7.55,7.55,0,0,1-1.11.12Z" style="fill:#263238"></path><path d="M254.17,445.6a11,11,0,1,1-11-11A11,11,0,0,1,254.17,445.6Z" style="fill:#263238"></path><path d="M272.59,75.59H213.88a4.1,4.1,0,0,1-4.1-4.09h0a4.11,4.11,0,0,1,4.1-4.1h58.71a4.1,4.1,0,0,1,4.09,4.1h0A4.09,4.09,0,0,1,272.59,75.59Z" style="fill:#263238"></path><rect x="108.22" y="83.13" width="269.34" height="344.52" style="fill:#fff"></rect><path d="M377.83,428.49c0-2.06-.1-140-.24-344.52l.24.23-269.31,0h0l.26-.26c0,127.75,0,246.37,0,344.52l-.22-.22,269.34.22-269.34.21h-.21v-.21c0-98.15,0-216.77,0-344.52v-.26h.29l269.31,0h.23V84C377.92,288.49,377.83,426.43,377.83,428.49Z" style="fill:#263238"></path><path d="M201.85,147.91c-3.59-4.35-2.49-13.68,1.39-17.78-2.3-2.7-1-7.72,1.18-10.55s8.27-5.14,8.27-5.14c1.47-8.19,10.25-13.67,18.37-12,4-6.34,14.25-6.47,21.48-4.63a19,19,0,0,0,5.35,1,29.68,29.68,0,0,0,3.95-.69c7.24-1.24,14.65,3.65,17.72,10.36a14.06,14.06,0,0,0,1.66,3.11,18.38,18.38,0,0,0,3.7,2.76,11.67,11.67,0,0,1,4.75,8.48c.22,2.84-.57,5.89.71,8.42.64,1.27,1.76,2.28,2.27,3.61,1.48,3.85-2.69,8-1.75,12,.2.82.59,1.58.85,2.38a7.26,7.26,0,0,1-.26,5c-.53,1.22-1.42,2.35-1.45,3.68a11.32,11.32,0,0,0,.69,2.94c.58,2.4-4.29,11.91-6.32,13.3l-56.78,13.67c-19.8-3.43-16.42-14.64-17-19.42a4.38,4.38,0,0,0-.66-2.28,5,5,0,0,0-1.74-1.05c-4.08-2-4.95-8.46-4.69-13a5.57,5.57,0,0,0-.1-1.91A7,7,0,0,0,201.85,147.91Z" style="fill:#455a64"></path><path d="M224,149c-.54-10.34,5.5-22.45,15.55-27.87,6.34-3.42,11.36-3.62,14.74-4.13a23.49,23.49,0,0,1,13.82,2.4c3.23.65,15.36,11,16.38,22.75,1.13,13,2,28.93.7,38.69-2.61,19.61-17.46,22.47-17.46,22.47s2.53,32.37,2.53,32.37l-40.36-14.31Z" style="fill:#ffbf9d"></path><path d="M257.53,178.9a3.91,3.91,0,0,1,5.82-3.11c1.51.87,1.82,2.54,1.7,4.45h0c-.71,1.17-1.21,2.32-2.56,2.55-.21,0-.42.06-.64.07a4.26,4.26,0,0,1-3-.91A3.82,3.82,0,0,1,257.53,178.9Z" style="fill:#ff9a6c"></path><path d="M276.32,157.64a2.5,2.5,0,0,1-2.35,2.59,2.38,2.38,0,0,1-2.62-2.2,2.51,2.51,0,0,1,2.34-2.59A2.4,2.4,0,0,1,276.32,157.64Z" style="fill:#263238"></path><path d="M280.22,149.77c-.3.33-2.22-1-4.91-1s-4.61,1.47-4.91,1.14c-.15-.14.15-.74,1-1.38a6.86,6.86,0,0,1,3.93-1.33,6.62,6.62,0,0,1,3.92,1.17C280.08,149,280.37,149.62,280.22,149.77Z" style="fill:#263238"></path><path d="M265,171.45c0-.15,1.64-.48,4.34-.89.68-.09,1.33-.24,1.43-.72a3.47,3.47,0,0,0-.51-2l-2.15-5.19c-3-7.4-5.19-13.49-4.89-13.61s3,5.78,6,13.18c.72,1.83,1.41,3.56,2.07,5.23a4,4,0,0,1,.42,2.69,1.74,1.74,0,0,1-1.1,1,5.06,5.06,0,0,1-1.16.19C266.74,171.55,265.05,171.61,265,171.45Z" style="fill:#263238"></path><path d="M267.75,203.32a49.51,49.51,0,0,1-26.3-6.34s7.27,13.61,26.69,11.3Z" style="fill:#ff9a6c"></path><path d="M278.2,139c-.44.67-2.5.28-4.9.54s-4.37.94-4.91.36c-.25-.28,0-.93.82-1.61a7.59,7.59,0,0,1,7.9-.73C278,138.11,278.39,138.7,278.2,139Z" style="fill:#263238"></path><path d="M247.18,159.16a2.51,2.51,0,0,0,2.56,2.38,2.4,2.4,0,0,0,2.43-2.42,2.5,2.5,0,0,0-2.56-2.37A2.4,2.4,0,0,0,247.18,159.16Z" style="fill:#263238"></path><path d="M243.52,151.73c.33.31,2.13-1.21,4.81-1.37s4.73,1.06,5,.71c.13-.15-.22-.72-1.11-1.29a6.85,6.85,0,0,0-4-1,6.54,6.54,0,0,0-3.8,1.5C243.61,151,243.36,151.59,243.52,151.73Z" style="fill:#263238"></path><path d="M243.15,141.16c.57.58,2.6-.18,5.08-.37s4.62.13,5.06-.54c.19-.33-.17-.92-1.13-1.44a8.07,8.07,0,0,0-8.17.73C243.15,140.23,242.9,140.88,243.15,141.16Z" style="fill:#263238"></path><path d="M227.6,167.45c0-1.45-1.79-4.84-3.23-5-3.84-.51-10.71,0-10.54,9.72.24,13.33,13.5,10.34,13.52,10S227.74,172.48,227.6,167.45Z" style="fill:#ffbf9d"></path><path d="M223.61,177.29c-.06,0-.23.17-.62.36a2.31,2.31,0,0,1-1.73.06c-1.41-.49-2.63-2.7-2.73-5.1a7.68,7.68,0,0,1,.58-3.34,2.69,2.69,0,0,1,1.71-1.81,1.18,1.18,0,0,1,1.38.61c.18.37.1.64.17.66s.28-.23.17-.78a1.53,1.53,0,0,0-.54-.82,1.73,1.73,0,0,0-1.29-.32,3.24,3.24,0,0,0-2.37,2.11,7.91,7.91,0,0,0-.74,3.73c.14,2.68,1.55,5.17,3.48,5.69a2.42,2.42,0,0,0,2.1-.39C223.59,177.62,223.65,177.32,223.61,177.29Z" style="fill:#ff9a6c"></path><path d="M284.92,147.25c-2.72-1.61-3.35-8.25-2.76-11.36a30.39,30.39,0,0,1-3.81-3.85c-1.07-1.52-2.09-4.07-1.78-5.9h0a11.88,11.88,0,0,1-2.18-.12,8.91,8.91,0,0,1-6-6.06c-1.69,2.77-5.16,3.21-9.05,1.74a7.16,7.16,0,0,1-12.17-.23,6.46,6.46,0,0,1-4.23,3.31,19.07,19.07,0,0,1-5.49.44,7.66,7.66,0,0,1-4.79,8.78c-.47.15-1,.31-1.22.76a2,2,0,0,0,.24,1.48,6,6,0,0,1-3.81,7.76,4.5,4.5,0,0,1-.23,7c-.48.3-1.1.67-1,1.23a1.3,1.3,0,0,0,.31.56,8.77,8.77,0,0,1,2.2,4.35c.16,1.65-.9,3.52-2.54,3.63a4.29,4.29,0,0,1,1.76,2.88c0,1.16-1.09,2.37-2.17,2-.47-.17-7.1-1.31-7.4-1.7-3.88-5-2.47-11.57-2.26-17.92s4.07-12.82,7.09-18.41c1.26-2.35,4-4.81,5.86-6.74a37,37,0,0,1,7-5.27,35.58,35.58,0,0,1,10.75-4.44,31.9,31.9,0,0,1,21.11,1.7c2.56,1.12,5.39,4.1,7.57,5.86a28.32,28.32,0,0,1,6.27,7.81c2.47,4.18,6.49,15.15,2.78,20.69" style="fill:#263238"></path><path d="M257,176.4c.31-.21,1.63,2,4.44,2.43s5-1.2,5.2-.91c.11.12-.27.75-1.24,1.36a6.3,6.3,0,0,1-4.27.88,5.5,5.5,0,0,1-3.58-2.11C257,177.17,256.88,176.48,257,176.4Z" style="fill:#263238"></path><path d="M189.35,228.5s-16.11,5.07-19.59,25.8c-2.69,16.05-5.23,78.1-5.23,78.1s-7.2,16.21-7.87,26.6-3.46,69.32-3.46,69.32l18,0S187.69,364.88,189,359s8-47.64,8-47.64l3.48-57.53Z" style="fill:#ffbf9d"></path><path d="M305.77,222.89c-2.77-.95,21.44,3.47,24.84,25.37,2.49,16.07,6.19,77.59,6.19,77.59s7.19,16.21,7.87,26.61,7.16,76.05,7.16,76.05l-19.85,0s-18.35-70.16-19.7-76-10.42-64.3-10.42-64.3l1.58-39.7Z" style="fill:#ffbf9d"></path><path d="M196.27,376s-10.91,24.53-13.13,52.38l60.06.08Z" style="fill:#ffbf9d"></path><path d="M310.66,376s11.07,24.64,13.28,52.49l-60.21-.06,3.41-8.36Z" style="fill:#ffbf9d"></path><path d="M297.48,334.81l6.95-61.52,2.9-50-38.09-10.07H229.68l-42.25,16,5.19,45.39c-1,1.3,12,60.44,12,60.44l-9.83,44,39.81,45,30.07,1.24L309.72,374Z" style="fill:#ffbf9d"></path><path d="M196.27,371.23S216.62,396.37,254,395c35.29-1.34,53.84-26.88,53.84-26.88,2.26,3.32,3.88,11,5,15,0,0-36.13,26.71-49.18,45.31l-20.53,0s-27.75-28.12-52.83-36.13C190.37,386.33,194.05,375.67,196.27,371.23Z" style="fill:#31CC4A"></path><path d="M189,256.28a3.93,3.93,0,0,1,.14.55l.36,1.57c.3,1.37.72,3.36,1.21,5.82,1,4.93,2.21,11.75,3.37,19.32s2,14.46,2.56,19.45c.27,2.49.47,4.51.59,5.91.05.67.09,1.21.13,1.61a4.71,4.71,0,0,1,0,.56,2.93,2.93,0,0,1-.1-.55c-.05-.4-.11-.94-.2-1.61-.17-1.43-.41-3.43-.7-5.89-.61-5-1.51-11.86-2.66-19.42s-2.36-14.39-3.27-19.33c-.46-2.43-.83-4.42-1.09-5.84-.12-.66-.22-1.19-.29-1.59A2.3,2.3,0,0,1,189,256.28Z" style="fill:#ff9a6c"></path><path d="M308.55,247a2.15,2.15,0,0,1,0,.5l-.1,1.4c-.09,1.21-.24,3-.45,5.15-.42,4.34-1.11,10.33-2.06,16.92s-2,12.53-2.84,16.81c-.42,2.14-.77,3.87-1,5.06l-.31,1.37a2,2,0,0,1-.14.47,3,3,0,0,1,.06-.49l.24-1.38c.23-1.24.54-3,.92-5.08.77-4.29,1.77-10.23,2.73-16.82s1.68-12.56,2.17-16.89c.24-2.14.43-3.88.57-5.14.06-.57.12-1,.16-1.39A2.87,2.87,0,0,1,308.55,247Z" style="fill:#ff9a6c"></path><path d="M193.72,283.6s7.85-7.61,22.08-7.94h1.42a37.22,37.22,0,0,1,22.7,8.47l8.65,7v9.12s-11.91,26.54-51.49,8.68Z" style="fill:#31CC4A"></path><path d="M303.8,284a39.65,39.65,0,0,0-23.42-8.34H279a36.11,36.11,0,0,0-23,9.08l-7.34,6.38v9.12s12.43,25,52,7.18Z" style="fill:#31CC4A"></path><path d="M249.13,286.46c.14,0,.14.6,0,1.27s-.36,1.2-.5,1.18-.15-.59,0-1.28S249,286.42,249.13,286.46Z" style="fill:#263238"></path><path d="M252.52,277.84a6.25,6.25,0,0,1-.84,2.17c-.54,1.15-1,2.07-1.16,2a4.72,4.72,0,0,1,.69-2.24C251.77,278.62,252.4,277.77,252.52,277.84Z" style="fill:#263238"></path><path d="M258.14,270.48c.1.1-.56.9-1.4,1.86s-1.55,1.71-1.67,1.62.42-1,1.28-2S258,270.38,258.14,270.48Z" style="fill:#263238"></path><path d="M265.61,265c.07.13-.8.71-1.87,1.38s-2,1.2-2.06,1.08.68-.83,1.78-1.52S265.54,264.88,265.61,265Z" style="fill:#263238"></path><path d="M274.31,261.83a6.3,6.3,0,0,1-2.18.82,6.55,6.55,0,0,1-2.28.47c-.05-.14.89-.62,2.13-1A4.76,4.76,0,0,1,274.31,261.83Z" style="fill:#263238"></path><path d="M281.38,261.12c0,.14-.56.27-1.24.29s-1.25-.08-1.26-.22.55-.28,1.24-.3S281.38,261,281.38,261.12Z" style="fill:#263238"></path><path d="M279,264.2a47,47,0,0,1,6-3.61l.07.48H285a47.25,47.25,0,0,1-6.88-1.68,50.16,50.16,0,0,1,7,1.17h.05l.69.15-.62.34A49,49,0,0,1,279,264.2Z" style="fill:#263238"></path><path d="M247.09,287.32c.14,0,.36.5.5,1.18s.13,1.26,0,1.28-.36-.51-.49-1.18S247,287.36,247.09,287.32Z" style="fill:#263238"></path><path d="M243.7,278.7c.12-.07.75.78,1.3,1.95a4.72,4.72,0,0,1,.69,2.24c-.13.06-.61-.87-1.16-2A6.28,6.28,0,0,1,243.7,278.7Z" style="fill:#263238"></path><path d="M238.07,271.35c.1-.11.94.54,1.79,1.51s1.39,1.88,1.28,2-.83-.67-1.67-1.63S238,271.45,238.07,271.35Z" style="fill:#263238"></path><path d="M230.61,265.87a4.81,4.81,0,0,1,2.14.95c1.1.68,1.87,1.41,1.79,1.52s-1-.41-2.06-1.08S230.54,266,230.61,265.87Z" style="fill:#263238"></path><path d="M221.91,262.7a4.64,4.64,0,0,1,2.32.31,4.77,4.77,0,0,1,2.14,1,6.25,6.25,0,0,1-2.28-.47A6.4,6.4,0,0,1,221.91,262.7Z" style="fill:#263238"></path><path d="M214.84,262c0-.14.56-.24,1.25-.22s1.26.15,1.24.29-.57.25-1.25.23S214.84,262.13,214.84,262Z" style="fill:#263238"></path><path d="M217.27,265.06a46.78,46.78,0,0,1-6.29-3.15l-.63-.34.7-.14h0a48,48,0,0,1,7-1.17,48.78,48.78,0,0,1-6.89,1.68h0l.08-.48A49.09,49.09,0,0,1,217.27,265.06Z" style="fill:#263238"></path><path d="M204.54,316.68c-.06.13-.61,0-1.24-.3s-1.08-.65-1-.78.63,0,1.24.31S204.6,316.55,204.54,316.68Z" style="fill:#263238"></path><path d="M214,319.48a9,9,0,0,1-4.81-1.11,7,7,0,0,1,2.45.38A7.07,7.07,0,0,1,214,319.48Z" style="fill:#263238"></path><path d="M223.84,320a9.55,9.55,0,0,1-4.94,0,6.86,6.86,0,0,1,2.47-.21A6.7,6.7,0,0,1,223.84,320Z" style="fill:#263238"></path><path d="M233.56,318.25a5.36,5.36,0,0,1-2.33.9,5.46,5.46,0,0,1-2.48.24,16.56,16.56,0,0,1,4.81-1.14Z" style="fill:#263238"></path><path d="M242.62,314.35a5.47,5.47,0,0,1-2.06,1.41,5.33,5.33,0,0,1-2.35.81c-.06-.14.91-.67,2.12-1.28A7.12,7.12,0,0,1,242.62,314.35Z" style="fill:#263238"></path><path d="M250.76,311.39a6,6,0,0,1-2.24-1.15h0l.31,0h0l0,0-.06,0-.09.08-.2.15-.38.29c-.24.18-.46.34-.65.46-.38.26-.64.38-.68.32s.13-.28.45-.6c.16-.16.35-.35.58-.55l.35-.3.19-.16.09-.08.05,0,0,0h0l.32,0h0C250,310.56,250.83,311.27,250.76,311.39Z" style="fill:#263238"></path><path d="M260,316a6.72,6.72,0,0,1-2.47-.81,6.61,6.61,0,0,1-2.26-1.28A12.67,12.67,0,0,1,260,316Z" style="fill:#263238"></path><path d="M270,318.87a6.53,6.53,0,0,1-2.58-.35,6.46,6.46,0,0,1-2.45-.86,6.67,6.67,0,0,1,2.57.35A7,7,0,0,1,270,318.87Z" style="fill:#263238"></path><path d="M280.24,319.94a6.78,6.78,0,0,1-2.6.11,6.44,6.44,0,0,1-2.57-.42,6.73,6.73,0,0,1,2.6-.1A6.55,6.55,0,0,1,280.24,319.94Z" style="fill:#263238"></path><path d="M290.54,319.15a6.41,6.41,0,0,1-2.53.58,6.7,6.7,0,0,1-2.6,0,6.73,6.73,0,0,1,2.54-.57A6.81,6.81,0,0,1,290.54,319.15Z" style="fill:#263238"></path><path d="M298,317.36c0,.13-.46.4-1.13.6s-1.23.24-1.27.1.47-.41,1.13-.6S297.94,317.22,298,317.36Z" style="fill:#263238"></path><path d="M286,370.23a41.78,41.78,0,0,1-.81-6.46l.41.19-.14.11c-2.9,2.23-5.46,4-5.59,3.59a10.79,10.79,0,0,0,1.55-1.12l3.73-2.89.14-.1.37-.3.05.48A41.79,41.79,0,0,1,286,370.23Z" style="fill:#263238"></path><path d="M220.26,369.41a41.09,41.09,0,0,1-5.38-3.6l.41-.19v.07c-.1,1.81-.24,3.44-.39,4.62s-.35,2-.52,1.83a11.32,11.32,0,0,0,.15-1.86c.07-1.41.15-2.94.24-4.61v-.08l0-.48.39.28A40.55,40.55,0,0,1,220.26,369.41Z" style="fill:#263238"></path><path d="M218.48,371.64c-.12.07-.48-.37-.81-1s-.48-1.17-.35-1.23.49.38.81,1S218.61,371.57,218.48,371.64Z" style="fill:#263238"></path><path d="M224.94,379.8c-.09.11-1-.61-2-1.68a5.85,5.85,0,0,1-1.51-2.16c.12-.09.92.76,1.89,1.81S225,379.7,224.94,379.8Z" style="fill:#263238"></path><path d="M233.41,385.85a5.65,5.65,0,0,1-2.41-1.07c-1.24-.76-2.12-1.55-2-1.66a8.08,8.08,0,0,1,2.31,1.22A8.4,8.4,0,0,1,233.41,385.85Z" style="fill:#263238"></path><path d="M243.2,389.37a5.73,5.73,0,0,1-2.61-.37,5.58,5.58,0,0,1-2.41-1.05,8.32,8.32,0,0,1,2.55.55A8.1,8.1,0,0,1,243.2,389.37Z" style="fill:#263238"></path><path d="M253.57,389.9a9.48,9.48,0,0,1-5.21.13,7.08,7.08,0,0,1,2.61-.23A6.5,6.5,0,0,1,253.57,389.9Z" style="fill:#263238"></path><path d="M263.64,387.29A9.73,9.73,0,0,1,258.7,389a8.35,8.35,0,0,1,2.42-1A8.21,8.21,0,0,1,263.64,387.29Z" style="fill:#263238"></path><path d="M272.59,382c.09.11-.75.94-1.95,1.77a6,6,0,0,1-2.35,1.19c-.07-.13.88-.81,2-1.62A8,8,0,0,1,272.59,382Z" style="fill:#263238"></path><path d="M279.76,374.45a5.63,5.63,0,0,1-1.39,2.23c-.92,1.13-1.83,1.89-1.93,1.79s.62-1,1.53-2.12S279.64,374.37,279.76,374.45Z" style="fill:#263238"></path><path d="M283.51,367.73c.13.06,0,.61-.29,1.25s-.63,1.09-.76,1,0-.62.29-1.24S283.38,367.68,283.51,367.73Z" style="fill:#263238"></path><path d="M271.88,350.16a1.51,1.51,0,0,1-.47-.08l-1.33-.34c-.57-.16-1.27-.34-2.09-.51s-1.76-.42-2.8-.58-2.19-.39-3.43-.52-2.56-.27-3.95-.38a61,61,0,0,0-18.06,1.59c-1.36.35-2.65.66-3.83,1.06s-2.29.74-3.28,1.11-1.87.74-2.66,1.06-1.44.61-2,.87l-1.25.56a2.31,2.31,0,0,1-.45.17s.13-.11.41-.26l1.2-.66c.52-.28,1.17-.61,2-.95s1.64-.77,2.64-1.13,2.08-.82,3.28-1.18,2.48-.75,3.84-1.12a63.87,63.87,0,0,1,9.05-1.52,62.69,62.69,0,0,1,9.16-.08c1.41.13,2.74.22,4,.43s2.39.38,3.44.59,2,.45,2.8.65,1.51.42,2.08.61l1.3.43A1.89,1.89,0,0,1,271.88,350.16Z" style="fill:#ff9a6c"></path><path d="M251.82,369.21a5.64,5.64,0,0,1-.73-2.33,6,6,0,0,1-.21-2.43,5.64,5.64,0,0,1,.73,2.33A6,6,0,0,1,251.82,369.21Z" style="fill:#ff9a6c"></path><path d="M238.84,167.27a4.59,4.59,0,0,1-2.28-1.1c-1.15-.81-1.87-1.72-1.77-1.81s1,.6,2.07,1.39S238.91,167.14,238.84,167.27Z" style="fill:#263238"></path><path d="M248.53,169.15a4.71,4.71,0,0,1-2.51.33,4.81,4.81,0,0,1-2.47-.56,9.33,9.33,0,0,1,2.5,0A9.12,9.12,0,0,1,248.53,169.15Z" style="fill:#263238"></path><path d="M257.65,165.36c.09.11-.71.94-1.92,1.65a4.76,4.76,0,0,1-2.37.9,9.36,9.36,0,0,1,2.1-1.34A9.22,9.22,0,0,1,257.65,165.36Z" style="fill:#263238"></path><path d="M261.08,134.33a6.05,6.05,0,0,1-.65-2.43,6.26,6.26,0,0,1-.14-2.51,6,6,0,0,1,.65,2.43A6.25,6.25,0,0,1,261.08,134.33Z" style="fill:#263238"></path><path d="M262.65,144.21a6,6,0,0,1-.65-2.43,6.26,6.26,0,0,1-.14-2.51,6.39,6.39,0,0,1,.65,2.43A6.26,6.26,0,0,1,262.65,144.21Z" style="fill:#263238"></path><path d="M275.59,166.31a4,4,0,0,1-2.47-.6c-1.29-.63-2.06-1.52-2-1.62a16,16,0,0,1,2.19,1.16A14.51,14.51,0,0,1,275.59,166.31Z" style="fill:#263238"></path><path d="M284.75,163.5c.1.09-.59,1-1.81,1.79a4,4,0,0,1-2.41.81c0-.15,1-.55,2.13-1.26A15.49,15.49,0,0,1,284.75,163.5Z" style="fill:#263238"></path><path d="M263.77,189.58a6,6,0,0,1-.49-2.46,6.38,6.38,0,0,1,0-2.52,12.36,12.36,0,0,1,.47,5Z" style="fill:#263238"></path><path d="M264.68,199.32a5.75,5.75,0,0,1-.48-2.36,5.68,5.68,0,0,1,0-2.4,5.64,5.64,0,0,1,.49,2.35A5.83,5.83,0,0,1,264.68,199.32Z" style="fill:#263238"></path><path d="M288.36,157.22a1.91,1.91,0,0,1,0-.39l.06-1.14c.06-1,.15-2.51.25-4.39s.19-4.24.16-7a62.41,62.41,0,0,0-.7-9.15,35.78,35.78,0,0,0-3.26-10.57,28.17,28.17,0,0,0-8-9.74,35,35,0,0,0-12.56-6.12,39.82,39.82,0,0,0-15-.94,42.81,42.81,0,0,0-25.57,12.89,42,42,0,0,0-10.41,21.11,43.92,43.92,0,0,0,.1,16,40.54,40.54,0,0,0,1.07,4.25l.33,1.09a1.64,1.64,0,0,1,.1.38,2.11,2.11,0,0,1-.15-.36c-.09-.27-.22-.62-.38-1.08a35.55,35.55,0,0,1-1.17-4.24,42.93,42.93,0,0,1-.26-16.13,42,42,0,0,1,10.42-21.37,43.06,43.06,0,0,1,25.85-13.08,39.84,39.84,0,0,1,15.18,1,35.38,35.38,0,0,1,12.73,6.23,28.56,28.56,0,0,1,8.09,9.92,36,36,0,0,1,3.23,10.71,61.23,61.23,0,0,1,.63,9.21c0,2.72-.12,5.05-.25,7s-.25,3.38-.34,4.38l-.12,1.14A1.69,1.69,0,0,1,288.36,157.22Z" style="fill:#263238"></path><path d="M210,322.76c-.13,0-.42-.46-.63-1.11s-.27-1.23-.14-1.27.42.45.64,1.11S210.17,322.71,210,322.76Z" style="fill:#263238"></path><path d="M212.42,332.63a12.72,12.72,0,0,1-1-5,12.26,12.26,0,0,1,1,5Z" style="fill:#263238"></path><path d="M213.53,342.73a6.28,6.28,0,0,1-.45-2.52,6.52,6.52,0,0,1,.06-2.55,6.2,6.2,0,0,1,.46,2.51A6.62,6.62,0,0,1,213.53,342.73Z" style="fill:#263238"></path><path d="M213.23,352.88a6.62,6.62,0,0,1-.09-2.55,6.54,6.54,0,0,1,.42-2.52,6.4,6.4,0,0,1,.1,2.55A6.17,6.17,0,0,1,213.23,352.88Z" style="fill:#263238"></path><path d="M211.48,362.88a6.42,6.42,0,0,1,.27-2.54,6.64,6.64,0,0,1,.79-2.43,12.74,12.74,0,0,1-1.06,5Z" style="fill:#263238"></path><path d="M208.27,372.51a6.25,6.25,0,0,1,.64-2.47,6.43,6.43,0,0,1,1.14-2.29,6.2,6.2,0,0,1-.65,2.47A6.36,6.36,0,0,1,208.27,372.51Z" style="fill:#263238"></path><path d="M205,379.34c-.13-.07,0-.62.35-1.23s.68-1.05.81-1,0,.61-.35,1.22S205.1,379.41,205,379.34Z" style="fill:#263238"></path><path d="M291.81,323.59c-.14,0-.08-.6.13-1.27s.5-1.16.63-1.11.08.62-.13,1.27S292,323.63,291.81,323.59Z" style="fill:#263238"></path><path d="M290.16,332.69a5.3,5.3,0,0,1,0-2.33,5.38,5.38,0,0,1,.56-2.26,10.34,10.34,0,0,1-.6,4.59Z" style="fill:#263238"></path><path d="M290.34,341.94a5.45,5.45,0,0,1-.42-2.3,5.32,5.32,0,0,1,.1-2.32,5.35,5.35,0,0,1,.42,2.29A5.27,5.27,0,0,1,290.34,341.94Z" style="fill:#263238"></path><path d="M292.37,351a5.54,5.54,0,0,1-.92-2.15,5,5,0,0,1-.32-2.31c.15,0,.48.95.83,2.17A5.37,5.37,0,0,1,292.37,351Z" style="fill:#263238"></path><path d="M296,359.48c-.13.06-.67-.83-1.22-2a5.2,5.2,0,0,1-.74-2.21,5.74,5.74,0,0,1,1.22,2A5.29,5.29,0,0,1,296,359.48Z" style="fill:#263238"></path><path d="M300.56,367.52c-.13.08-.76-.75-1.41-1.85s-1.09-2.05-1-2.12.75.76,1.41,1.85A5.53,5.53,0,0,1,300.56,367.52Z" style="fill:#263238"></path><path d="M304.38,373.54c-.12.08-.52-.33-.9-.91s-.58-1.11-.46-1.19.53.33.9.91S304.5,373.47,304.38,373.54Z" style="fill:#263238"></path><path d="M303.55,289.92c-.13.07-.49-.38-.8-1s-.47-1.16-.34-1.23.48.38.8,1S303.68,289.86,303.55,289.92Z" style="fill:#263238"></path><path d="M307.64,298.94a11.84,11.84,0,0,1-2-4.55,6.13,6.13,0,0,1,1.22,2.18A6.21,6.21,0,0,1,307.64,298.94Z" style="fill:#263238"></path><path d="M311,308.26A6.1,6.1,0,0,1,310,306a6.48,6.48,0,0,1-.55-2.43,5.9,5.9,0,0,1,1,2.26A6.07,6.07,0,0,1,311,308.26Z" style="fill:#263238"></path><path d="M313.64,317.81a6.32,6.32,0,0,1-.86-2.34,6,6,0,0,1-.36-2.46,11.94,11.94,0,0,1,1.22,4.8Z" style="fill:#263238"></path><path d="M315.53,327.53a11.94,11.94,0,0,1-.85-4.88,6.16,6.16,0,0,1,.69,2.4A5.92,5.92,0,0,1,315.53,327.53Z" style="fill:#263238"></path><path d="M316.67,337.37a11.65,11.65,0,0,1-.47-4.93,12.09,12.09,0,0,1,.47,4.93Z" style="fill:#263238"></path><path d="M317,347.27a6,6,0,0,1-.3-2.47,6.12,6.12,0,0,1,.21-2.48,6,6,0,0,1,.31,2.47A6.22,6.22,0,0,1,317,347.27Z" style="fill:#263238"></path><path d="M316.78,354.72c-.14,0-.23-.57-.19-1.26s.18-1.24.33-1.23.23.57.19,1.26S316.93,354.73,316.78,354.72Z" style="fill:#263238"></path><path d="M193.77,301.39c-.14,0-.07-.61.15-1.26s.52-1.15.65-1.1.07.61-.15,1.26S193.9,301.44,193.77,301.39Z" style="fill:#263238"></path><path d="M190.61,311.42a6.69,6.69,0,0,1,.52-2.59,6.92,6.92,0,0,1,1-2.44,6.69,6.69,0,0,1-.52,2.59A6.81,6.81,0,0,1,190.61,311.42Z" style="fill:#263238"></path><path d="M187.84,321.56a6.89,6.89,0,0,1,.42-2.61,7.35,7.35,0,0,1,.91-2.48,6.73,6.73,0,0,1-.41,2.61A6.81,6.81,0,0,1,187.84,321.56Z" style="fill:#263238"></path><path d="M185.52,331.81a6.78,6.78,0,0,1,.3-2.62,6.87,6.87,0,0,1,.8-2.52,13.08,13.08,0,0,1-1.1,5.14Z" style="fill:#263238"></path><path d="M183.71,342.17a6.93,6.93,0,0,1,.16-2.64,6.85,6.85,0,0,1,.68-2.55,6.94,6.94,0,0,1-.16,2.64A7.08,7.08,0,0,1,183.71,342.17Z" style="fill:#263238"></path><path d="M182.49,352.61a6.75,6.75,0,0,1,0-2.64,7,7,0,0,1,.53-2.59,7,7,0,0,1,0,2.65A6.75,6.75,0,0,1,182.49,352.61Z" style="fill:#263238"></path><path d="M182,363.12a6.65,6.65,0,0,1-.18-2.64,6.79,6.79,0,0,1,.34-2.62,13.43,13.43,0,0,1-.16,5.26Z" style="fill:#263238"></path><path d="M182.28,373.62a6.93,6.93,0,0,1-.4-2.61,6.78,6.78,0,0,1,.13-2.64,7,7,0,0,1,.39,2.61A6.9,6.9,0,0,1,182.28,373.62Z" style="fill:#263238"></path><path d="M183.14,381.34c-.14,0-.33-.51-.42-1.2s-.06-1.25.08-1.27.34.52.43,1.2S183.29,381.32,183.14,381.34Z" style="fill:#263238"></path></g><g id="freepik--speech-bubble--inject-86"><path d="M355.62,136.89l-.75-7.16a24,24,0,1,0-6,6.2h0Z" style="fill:#fff"></path><path d="M355.62,136.89l-.45-.08-1.3-.2-5-.77.06.16h0a.11.11,0,0,0,0-.14.13.13,0,0,0-.12,0,24.11,24.11,0,0,1-10.75,4.24,24.43,24.43,0,0,1-3.68.19c-.63,0-1.28-.1-1.94-.15a12.57,12.57,0,0,1-2-.29,23.49,23.49,0,0,1-8-3.12,23.84,23.84,0,0,1-6.94-6.53,24.13,24.13,0,0,1-4-9.49,24.23,24.23,0,0,1,2.86-16.18,24.56,24.56,0,0,1,8.05-8.25,23.9,23.9,0,0,1,5.15-2.36A23.44,23.44,0,0,1,338.39,93a23.85,23.85,0,0,1,16.39,36.69.13.13,0,0,0,0,.06c.27,2.3.47,4.07.62,5.29.07.59.13,1.05.17,1.38s.06.48.06.48,0-.14,0-.44-.07-.78-.12-1.36c-.12-1.24-.29-3-.51-5.37v.07a23.94,23.94,0,0,0,3.95-11,24.17,24.17,0,0,0-20.45-26.23,24.35,24.35,0,0,0-16.27,3.32,24.18,24.18,0,0,0-4.59,3.7,25.29,25.29,0,0,0-3.63,4.71,24.9,24.9,0,0,0-2.28,5.36,24.1,24.1,0,0,0,18.74,30.55,14.21,14.21,0,0,0,2,.28c.67.05,1.32.14,2,.14a24.89,24.89,0,0,0,3.72-.22A24.11,24.11,0,0,0,349,136l-.13-.14h0a.09.09,0,0,0,0,.13l.05,0,5.05.66,1.28.16Z" style="fill:#263238"></path><path d="M331.7,107.73h6.2a0,0,0,0,1,0,0v17.14a1.67,1.67,0,0,1-1.67,1.67h-2.85a1.67,1.67,0,0,1-1.67-1.67V107.73A0,0,0,0,1,331.7,107.73Z" transform="translate(142.94 -181.2) rotate(37.97)" style="fill:#455a64"></path><path d="M325.17,130a.48.48,0,0,0,.39-.19l4.6-5.89a.5.5,0,0,0-.79-.61l-4.6,5.88a.51.51,0,0,0,.09.71A.5.5,0,0,0,325.17,130Z" style="fill:#455a64"></path><path d="M345.51,114.06a.5.5,0,0,0,.31-.89L336,105.49a.5.5,0,1,0-.62.78L345.2,114A.5.5,0,0,0,345.51,114.06Z" style="fill:#455a64"></path><path d="M338.18,108.47l4.78-6.14,4.26,3.33-4.82,6.17Zm5-4.73-3.56,4.56,2.65,2.12,3.59-4.59Z" style="fill:#455a64"></path><path d="M348,107.36a.5.5,0,0,0,.31-.89l-6-4.66a.5.5,0,0,0-.7.08.52.52,0,0,0,.08.71l6,4.66A.49.49,0,0,0,348,107.36Z" style="fill:#455a64"></path><path d="M330.66,121.26a.25.25,0,0,0,.2-.1.26.26,0,0,0-.05-.35l-1.62-1.26a.24.24,0,0,0-.35,0,.25.25,0,0,0,.05.35l1.62,1.27A.27.27,0,0,0,330.66,121.26Z" style="fill:#fff"></path><path d="M333,118.31a.23.23,0,0,0,.2-.1.26.26,0,0,0,0-.35l-1.62-1.26a.25.25,0,0,0-.31.39l1.62,1.27A.27.27,0,0,0,333,118.31Z" style="fill:#fff"></path><path d="M332.55,120.45a.23.23,0,0,0,.2-.1.24.24,0,0,0,0-.35l-2.4-1.87a.25.25,0,1,0-.31.39l2.4,1.88A.3.3,0,0,0,332.55,120.45Z" style="fill:#fff"></path><path d="M335.5,115.06a.25.25,0,0,0,.2-.1.25.25,0,0,0-.05-.35L334,113.35a.24.24,0,0,0-.35,0,.25.25,0,0,0,.05.35l1.62,1.27A.27.27,0,0,0,335.5,115.06Z" style="fill:#fff"></path><path d="M335.09,117.2a.26.26,0,0,0,.2-.1.24.24,0,0,0,0-.35l-2.41-1.88a.25.25,0,0,0-.3.4l2.4,1.87A.22.22,0,0,0,335.09,117.2Z" style="fill:#fff"></path><path d="M337.91,112a.26.26,0,0,0,.19-.1.24.24,0,0,0,0-.35l-1.62-1.27a.25.25,0,0,0-.35,0,.24.24,0,0,0,0,.35l1.62,1.26A.25.25,0,0,0,337.91,112Z" style="fill:#fff"></path><path d="M337.5,114.11a.25.25,0,0,0,.15-.45l-2.4-1.87a.25.25,0,0,0-.31.39l2.41,1.88A.21.21,0,0,0,337.5,114.11Z" style="fill:#fff"></path></g><g id="freepik--character-3--inject-86"><path d="M297.61,182.22l13.3,3.86L327.34,204l-3.4,8.18-5.33-5s-14.82-1.8-16-3.74a3.75,3.75,0,0,1-.06-3.73,8.32,8.32,0,0,1-.33-3.89,2.59,2.59,0,0,1,1.73-2,1.92,1.92,0,0,1-1.07-2.55,3.47,3.47,0,0,1,2-2.45s-9-3.51-9.81-4.59a.9.9,0,0,1,0-1.13A2.25,2.25,0,0,1,297.61,182.22Z" style="fill:#455a64"></path><path d="M330.21,198.24l-4.83-1.85-6.24-9.57-12.86-2.56s-2.08,1.07,1.07,4.53a7.86,7.86,0,0,0,7.24,2.49s-.46,7.94,2,11.33,9.93,3.92,9.93,3.92Z" style="fill:#455a64"></path><path d="M316.45,203.17s-.26-.23-.6-.74a11.48,11.48,0,0,1-1.18-2.35,13,13,0,0,1-.13-8.63l.22.34-.45,0a16.15,16.15,0,0,1-4.87-1.08,6.18,6.18,0,0,1-3.05-2.71,4.34,4.34,0,0,1-.55-2.7,1.87,1.87,0,0,1,.33-.95s-.09.35-.13,1a4.46,4.46,0,0,0,.67,2.5,5.93,5.93,0,0,0,2.92,2.45,16.37,16.37,0,0,0,4.73,1l.45,0,.33,0-.1.31a13.33,13.33,0,0,0,0,8.34A24.45,24.45,0,0,0,316.45,203.17Z" style="fill:#263238"></path><path d="M304.34,194.16s.48.14,1.33.38,2.08.56,3.6,1a13.23,13.23,0,0,1,2.43,1,2.55,2.55,0,0,1,1.12,1.09,1.8,1.8,0,0,1-.16,1.67,3,3,0,0,1-1.27,1.17,3.13,3.13,0,0,1-1.78.2c-.28,0-.56-.08-.84-.1a6.5,6.5,0,0,1-.9-.14c-.59-.13-1.16-.3-1.74-.48l-1.55-.49.14-.5a13.47,13.47,0,0,1,3,1.42l1.32.76c.42.25.88.43,1.31.74a1.8,1.8,0,0,1,.79,1.31,1.23,1.23,0,0,1-.23.77,1.55,1.55,0,0,1-.58.45,5.84,5.84,0,0,1-2.37.45,11.73,11.73,0,0,1-3.33-.66,5.46,5.46,0,0,1-1.14-.46,7.59,7.59,0,0,1,1.2.28,12.84,12.84,0,0,0,3.27.48,5.49,5.49,0,0,0,2.19-.46.83.83,0,0,0,.54-.82,1.32,1.32,0,0,0-.62-1c-.35-.25-.81-.43-1.26-.68l-1.34-.76a13.34,13.34,0,0,0-2.86-1.34l.14-.5,1.55.48c.57.18,1.14.34,1.7.47a6.26,6.26,0,0,0,.83.14c.3,0,.59.06.86.1a2.35,2.35,0,0,0,2.58-1.1,1.35,1.35,0,0,0,.15-1.25,2.14,2.14,0,0,0-.92-.89,12.62,12.62,0,0,0-2.33-1c-1.48-.51-2.72-.88-3.55-1.19A5,5,0,0,1,304.34,194.16Z" style="fill:#263238"></path><path d="M305,188.88a9.13,9.13,0,0,1,2.74.75,22.79,22.79,0,0,1,2.8,1.33c.5.29,1,.62,1.55,1a2.66,2.66,0,0,1,1.31,1.64,1.34,1.34,0,0,1-.4,1.11,2,2,0,0,1-1,.52,6.8,6.8,0,0,1-1.89.08,23.53,23.53,0,0,1-3.06-.46,8.58,8.58,0,0,1-2.71-.87c0-.07,1.06.24,2.78.51.86.13,1.88.28,3,.34a6.3,6.3,0,0,0,1.73-.1c.54-.11,1-.56,1-1.07s-.59-.94-1.09-1.28-1-.69-1.5-1a24.63,24.63,0,0,0-2.69-1.41C306.05,189.26,305,189,305,188.88Z" style="fill:#263238"></path><path d="M355.87,207.42l5.72-29.13A22.77,22.77,0,0,1,370.92,164l10-7L376.81,222l-1.71,5c-4.12,10.24-14.45,9.12-23.72,5.22l-1-.44-28.51-17,8.87-17.48Z" style="fill:#e0e0e0"></path><path d="M393.84,428.82l6.36,22S380,464.7,380.73,468.89l43.14-10.8-8.5-34.72Z" style="fill:#455a64"></path><path d="M413.07,445.64a1.8,1.8,0,0,1,1.72,1.7,1.73,1.73,0,0,1-1.67,1.72,1.92,1.92,0,0,1-1.82-1.81,1.82,1.82,0,0,1,1.95-1.6" style="fill:#e0e0e0"></path><path d="M423.87,458.09l-1-3.46-41,11.64s-1.71,1.32-1.15,2.62Z" style="fill:#263238"></path><path d="M399.45,450.8c.06.21,1.13,0,2.34.46s2,1.16,2.15,1-.44-1.27-1.91-1.75S399.35,450.62,399.45,450.8Z" style="fill:#263238"></path><path d="M395.39,453.8c0,.22,1,.35,1.94,1.06s1.38,1.6,1.59,1.54,0-1.28-1.14-2.15S395.34,453.6,395.39,453.8Z" style="fill:#263238"></path><path d="M394.17,459.86c.21,0,.24-1.13-.59-2.15s-1.93-1.23-2-1,.72.66,1.39,1.51S394,459.89,394.17,459.86Z" style="fill:#263238"></path><path d="M398.55,445.62c.14.17,1-.36,2.24-.58s2.24-.07,2.3-.28-1-.74-2.44-.46S398.41,445.48,398.55,445.62Z" style="fill:#263238"></path><path d="M409,434l1,22.9s-22.94,8.71-23.17,13l44.47-.35-.09-35.75Z" style="fill:#455a64"></path><path d="M424.53,456.58a1.82,1.82,0,0,1,1.27,2.07,1.73,1.73,0,0,1-2,1.27,1.91,1.91,0,0,1-1.34-2.19,1.8,1.8,0,0,1,2.26-1.09" style="fill:#e0e0e0"></path><path d="M431.27,469.52l-.15-3.6-42.58,1.68s-2,.87-1.74,2.27Z" style="fill:#263238"></path><path d="M409.25,456.69c0,.21,1.09.3,2.16,1s1.65,1.6,1.85,1.51-.13-1.34-1.45-2.15S409.2,456.49,409.25,456.69Z" style="fill:#263238"></path><path d="M404.6,458.65c-.05.21.89.57,1.64,1.49s1,1.88,1.18,1.87.34-1.24-.61-2.36S404.6,458.44,404.6,458.65Z" style="fill:#263238"></path><path d="M402,464.26c.2,0,.49-1.05-.08-2.23s-1.58-1.65-1.67-1.47.54.81,1,1.79S401.77,464.24,402,464.26Z" style="fill:#263238"></path><path d="M409.6,451.44c.09.2,1.08-.11,2.31,0s2.19.45,2.3.26-.81-.95-2.26-1S409.49,451.27,409.6,451.44Z" style="fill:#263238"></path><path d="M436.48,266.43v18.11l-4.86,70.54s3,34.22,4.88,53.54c1.61,16.78-1,46-1,46H407.17L397,357.18l-6.28-60.77-10.94-27.66Z" style="fill:#263238"></path><polygon points="360.45 269.65 367.36 368 395.99 441.69 397.31 446.13 414.22 442.04 401.64 267.67 360.45 269.65" style="fill:#263238"></polygon><path d="M390.83,297.14a2.56,2.56,0,0,0,0,.41c0,.29,0,.69,0,1.2,0,1.08.09,2.63.15,4.61.11,4,.4,9.8.81,17,.85,14.3,2.44,34.05,4.93,55.78s5.14,41.36,7.12,55.56c1,7.07,1.81,12.8,2.38,16.8.29,2,.51,3.49.67,4.57.08.5.14.89.19,1.18a1.78,1.78,0,0,0,.08.4,2.11,2.11,0,0,0,0-.41c0-.29-.08-.68-.13-1.19-.14-1.07-.33-2.61-.58-4.58-.53-4-1.28-9.74-2.21-16.82-1.88-14.21-4.52-33.84-7-55.57s-4.13-41.45-5.08-55.75c-.46-7.15-.8-12.94-1-16.94-.1-2-.18-3.53-.24-4.61,0-.5-.06-.9-.08-1.2A2.38,2.38,0,0,0,390.83,297.14Z" style="fill:#455a64"></path><path d="M389,272.52a1.46,1.46,0,1,0,1.45-1.46A1.45,1.45,0,0,0,389,272.52Z" style="fill:#455a64"></path><path d="M364.15,286.26a9,9,0,0,0,2-1.87,22.64,22.64,0,0,0,3.56-5.57,22.2,22.2,0,0,0,1.78-6.36,9.13,9.13,0,0,0,.07-2.74c-.09,0-.15,1-.44,2.68a25.91,25.91,0,0,1-5.26,11.75C364.83,285.46,364.09,286.2,364.15,286.26Z" style="fill:#455a64"></path><path d="M409.59,452.79a23.54,23.54,0,0,0-.2,3.69l.12-.18c-1.61.69-3.71,1.62-6,2.65-2.58,1.17-4.9,2.26-6.57,3.07a16.76,16.76,0,0,0-2.66,1.41,17.69,17.69,0,0,0,2.81-1.08c1.71-.72,4-1.75,6.63-2.92,2.28-1,4.36-2,5.94-2.77l.12-.06v-.12A23.54,23.54,0,0,0,409.59,452.79Z" style="fill:#263238"></path><path d="M414.07,144.08l2.59,5.58s25.14,12.33,25,13.58c0,0-1.61,47.61-1.87,82.29h0c2.32,17.8,6.12,105.16,6.12,105.16l-94.44-2.24,15-168.73,15.54-25,5.84-4.75Z" style="fill:#e0e0e0"></path><path d="M373.41,349a2.12,2.12,0,0,1,0-.41c0-.29,0-.68,0-1.17.06-1.07.14-2.59.25-4.54.23-4,.57-9.65,1-16.66.85-14.09,2-33.51,3.32-55s2.35-40.88,3.16-55c.38-7,.68-12.7.9-16.66.11-2,.19-3.47.25-4.53,0-.5.06-.89.08-1.18a1.73,1.73,0,0,1,.05-.4,2.47,2.47,0,0,1,0,.4c0,.29,0,.68,0,1.18,0,1.07-.09,2.59-.15,4.54-.14,3.93-.4,9.63-.72,16.67-.67,14.08-1.73,33.52-3,55s-2.53,40.9-3.47,55c-.49,7-.89,12.68-1.16,16.65-.15,1.94-.27,3.46-.35,4.52,0,.5-.08.89-.1,1.18A2.23,2.23,0,0,1,373.41,349Z" style="fill:#263238"></path><g style="opacity:0.30000000000000004"><path d="M437.15,240.2a20.64,20.64,0,0,0-4.86-2.66c-10-4.51-18.73-11.26-28.21-16.72s-20.26-9.69-31.12-8.4l-12.68,11.86c1.29,2.8,4.5,4.28,7.58,4.57s6.16-.36,9.25-.63,6.38-.1,8.95,1.63,4.1,5,6.45,7.3c2.81,2.72,6.75,3.87,10.52,4.92l24,6.74c2.4.67,4.9,1.35,7.36.94s4.87-2.26,5.08-4.75A5.89,5.89,0,0,0,437.15,240.2Z"></path></g><path d="M421.91,181.92l5,34.65L405,207.85l-8.53,23.51s27.69,12.16,42,14.29c6.9,1,16.56-7.41,15.87-16-1.8-22.18-8.11-60.91-8.11-60.91s-4.5-9.21-12.15-8.16a11.59,11.59,0,0,0-6.83,3.8C421.18,170.73,421.91,181.92,421.91,181.92Z" style="fill:#e0e0e0"></path><polyline points="387.85 149.94 385.75 164.42 382.01 193.48 398.34 165.44 413.79 146.17 388.85 161.09 388.86 149.67" style="fill:#31CC4A"></polyline><path d="M416.77,150.54a6.25,6.25,0,0,1-.45,1.14l-1.39,3.13c-1.27,2.75-3,6.54-5.07,11l-.07.14h-3.56l.16-.45,2.51,2.05.23.19-.22.2-4.75,4.66-15.27,14.82c-1.94,1.83-3.52,3.34-4.68,4.44l-1.29,1.19a2.61,2.61,0,0,1-.47.39,2.15,2.15,0,0,1,.4-.47l1.22-1.26,4.55-4.57,15.16-14.93,4.76-4.65,0,.4-2.5-2.07-.55-.46h4.13l-.22.14,5.24-10.94c.63-1.28,1.14-2.31,1.53-3.08A7.12,7.12,0,0,1,416.77,150.54Z" style="fill:#263238"></path><path d="M382,193.48a10.63,10.63,0,0,1-.33-1.8c-.18-1.25-.41-2.92-.7-4.93-.56-4.17-1.3-9.93-2.08-16.3l-.72-5.93,0-.23.23-.06,4.09-1,0,.48-4.11-.74-.28-.05.12-.24c1.1-2.41,2-4.4,2.7-5.88l.78-1.6a2,2,0,0,1,.31-.54,2.5,2.5,0,0,1-.2.59l-.67,1.65c-.64,1.5-1.5,3.51-2.53,5.95l-.16-.3,4.12.68,1.18.19-1.16.29-4.09,1,.2-.28c.24,1.89.49,3.88.74,5.93.78,6.36,1.46,12.13,1.93,16.31.21,2,.39,3.7.52,5A13.73,13.73,0,0,1,382,193.48Z" style="fill:#263238"></path><path d="M395.94,270.83a3.14,3.14,0,0,1,.58,0l1.74.11,6.65.48,23.84,1.83.24,0,0,.24c-.39,4.49-.8,9.35-1.24,14.49-.22,2.57-.45,5.21-.69,7.9-.11,1.35-.23,2.71-.35,4.08a10.5,10.5,0,0,1-.33,2.11,7.17,7.17,0,0,1-.94,1.95,8.58,8.58,0,0,1-5.6,3.39,45.84,45.84,0,0,1-6.36.34,53.93,53.93,0,0,1-11.91-1.31,17.9,17.9,0,0,1-2.71-.89,8,8,0,0,1-1.27-.64,4.1,4.1,0,0,1-.57-.46,4.9,4.9,0,0,1-.45-.57,13.29,13.29,0,0,1-1.56-5.07,64,64,0,0,1-.47-9.44c.09-5.76.5-10.41.81-13.62.16-1.6.31-2.84.41-3.69.06-.39.1-.71.14-1a2.37,2.37,0,0,1,.06-.32,1.17,1.17,0,0,1,0,.33c0,.24,0,.56-.08,1-.07.88-.17,2.12-.31,3.69-.24,3.21-.59,7.86-.63,13.61a63.24,63.24,0,0,0,.53,9.36,12.9,12.9,0,0,0,1.51,4.88,4.13,4.13,0,0,0,2.08,1.48,17.32,17.32,0,0,0,2.64.85,53.36,53.36,0,0,0,11.8,1.26,45.32,45.32,0,0,0,6.25-.34,8.06,8.06,0,0,0,5.26-3.16,6.94,6.94,0,0,0,.86-1.8,10.73,10.73,0,0,0,.31-2c.12-1.38.24-2.74.36-4.09.23-2.69.47-5.33.69-7.9.46-5.14.89-10,1.29-14.48l.22.26L405,271.69l-6.69-.61-1.78-.17Z" style="fill:#263238"></path><path d="M432.61,226.08a26.9,26.9,0,0,0-2.24-5.21,27.5,27.5,0,0,0-3.69-4.3,10.18,10.18,0,0,1,4.16,4A10.06,10.06,0,0,1,432.61,226.08Z" style="fill:#263238"></path><path d="M446.21,168.78s.05.19.11.55.16.91.29,1.6c.23,1.43.58,3.5,1,6.17.86,5.36,2.06,13.12,3.41,22.73.67,4.81,1.38,10.08,2.06,15.75.33,2.84.67,5.77,1,8.8.16,1.51.28,3.05.43,4.61a18.92,18.92,0,0,1,.07,2.39,13.16,13.16,0,0,1-.44,2.4,14.81,14.81,0,0,1-.83,2.31,17.14,17.14,0,0,1-1.23,2.16,19.41,19.41,0,0,1-1.51,2,21.72,21.72,0,0,1-1.81,1.78,17.16,17.16,0,0,1-4.31,2.82A11.72,11.72,0,0,1,439.3,246a64.79,64.79,0,0,1-10.45-2.27c-3.48-1-7-2.17-10.45-3.39-7.68-2.74-15-5.69-22-8.71l-.23-.1.08-.23c3-8.29,5.88-16.17,8.55-23.51l.08-.23.24.09L427,216.39l-.28.21c-1.51-10.68-2.73-19.34-3.59-25.36-.4-3-.72-5.3-.94-6.9-.1-.78-.18-1.38-.23-1.8s-.06-.62-.06-.62,0,.21.11.61.17,1,.29,1.79c.25,1.6.6,3.92,1.06,6.89.89,6,2.17,14.66,3.76,25.33l.05.35-.32-.13-21.94-8.69.32-.14c-2.66,7.34-5.51,15.23-8.51,23.52l-.14-.33c7,3,14.33,5.95,22,8.67,3.49,1.22,7,2.38,10.42,3.39a64.75,64.75,0,0,0,10.32,2.26,11.22,11.22,0,0,0,4.9-1.07,16.47,16.47,0,0,0,4.18-2.73,16.56,16.56,0,0,0,3.24-3.67,16.81,16.81,0,0,0,1.2-2.09,15.27,15.27,0,0,0,.81-2.23,13.26,13.26,0,0,0,.42-2.3A18,18,0,0,0,454,229c-.14-1.56-.26-3.1-.42-4.61-.29-3-.62-5.95-.94-8.79-.66-5.66-1.35-10.93-2-15.74-1.3-9.62-2.45-17.39-3.24-22.76-.4-2.67-.71-4.75-.92-6.19-.1-.69-.18-1.22-.23-1.61S446.21,168.78,446.21,168.78Z" style="fill:#263238"></path><path d="M435.32,161.14c0,.1-1.29.12-3.25.72A14.52,14.52,0,0,0,422,173.12c-.38,2-.26,3.31-.36,3.31a2.44,2.44,0,0,1-.14-.9,12.07,12.07,0,0,1,.13-2.47A14,14,0,0,1,432,161.49a12.56,12.56,0,0,1,2.44-.39A2.82,2.82,0,0,1,435.32,161.14Z" style="fill:#263238"></path><g style="opacity:0.30000000000000004"><path d="M426.33,301.42c-2.54,6.63-9.19,7-16.34,6-6.73-1-13.2-2.4-13.7-4.33.18,3.52,2.77,6.22,6,7.63a23.43,23.43,0,0,0,10.35,1.45c3.68-.16,6.86,0,9.9-2.09S426.34,304.44,426.33,301.42Z"></path></g><path d="M333.94,192.84l6.72,28c.37,1.56,1.76,2.65,4,3.27l38.14.13a4.53,4.53,0,0,0,2.78-4.71l-5-26.77a3.45,3.45,0,0,0-3.32-2.82l-40.2-.93A3.12,3.12,0,0,0,333.94,192.84Z" style="fill:#263238"></path><path d="M374.12,198.48s8.45-.34,9.86,0,19.61,12.09,19.61,12.09l-5.46,15.59-3.74-4.93a31.23,31.23,0,0,1-7.44-1.76c-2.65-1.23-5.75-2.55-5.75-2.55l-5.58.79-6.06.12s-2.07-1-.37-2.4S375,214,375,214l6.23-1.47s-7.16-.54-7.86-.65-5.55,1.09-6.2.62a1.88,1.88,0,0,1-.39-2.45c.55-.89,5.14-2.3,5.14-2.3l8-.74-7.88-.19-4.27-.24s-1.16-.85.35-2.12,7.68-2.12,7.68-2.12l6.34-.57-6.42-.67-4.23.78a1.14,1.14,0,0,1-.93-2A8,8,0,0,1,374.12,198.48Z" style="fill:#455a64"></path><path d="M366.76,176.49s0,.3-.1.87-.15,1.45-.27,2.57c-.23,2.27-.56,5.59-1,9.88-.83,8.61-2,21.07-3.55,36.53-.74,7.74-1.56,16.22-2.44,25.35s-1.6,18.92-2.48,29.24c-1.73,20.65-3.65,43.43-5.67,67.5l0,.27h.28l13.35.32,81.1,1.89h.24v-.24c0-7.8-.48-15.26-.82-22.38s-.79-13.88-1.16-20.24c-.82-12.73-1.54-23.87-2.13-33.08s-1.14-16.44-1.49-21.41c-.18-2.47-.32-4.37-.42-5.66-.05-.64-.09-1.12-.12-1.46S440,246,440,246s0,.17,0,.49.05.83.08,1.46c.08,1.3.2,3.2.35,5.67.32,5,.78,12.23,1.36,21.42s1.25,20.35,2,33.08c.35,6.37.73,13.13,1.12,20.24s.78,14.59.78,22.35l.24-.23-81.09-1.95-13.36-.31.26.28c2-24.07,3.9-46.85,5.62-67.49.86-10.32,1.67-20.11,2.43-29.25s1.65-17.62,2.38-25.36c1.43-15.46,2.59-27.93,3.39-36.54.38-4.29.68-7.62.89-9.89.09-1.12.17-2,.22-2.57S366.76,176.49,366.76,176.49Z" style="fill:#263238"></path><path d="M371,107.7c1.76-1.91,3.88-3.71,4.48-6.22.55-2.32-.28-5,.93-7,1.48-2.52,5.24-2.76,7-5.07.87-1.12,1.16-2.6,2-3.73,1.46-1.92,4.2-2.37,6.6-2s4.68,1.23,7.08,1.46c3.3.32,6.74-.67,9.89.36,3.47,1.13,5.54,4.28,7.74,7.34l2.88,3.55A12.79,12.79,0,0,0,421.62,98a23.86,23.86,0,0,1,3.69,2.49,5.86,5.86,0,0,1-.6,8.42,6.26,6.26,0,0,1,4.06,6.24,18.13,18.13,0,0,1-1.24,4.21,6.24,6.24,0,0,0-.23,4.31c.55,1.36,2.25,2.33,3.55,1.64a6.62,6.62,0,0,1-3.7,4.3,4,4,0,0,0,2.61,1.24c-2.84,6.22-10.22,9.34-17.06,9.2s-13.32-2.91-19.6-5.64l-18.29-5.27c-1.61-.42-2.23-2.4-2.16-4.06s.53-3.37,0-4.94c-.75-2.14-3.19-3.34-4-5.47C367.74,112.24,369.28,109.6,371,107.7Z" style="fill:#263238"></path><path d="M414.17,125.66a76,76,0,0,0,3.58-12.6,26.45,26.45,0,0,0-.74-13c-.22-.62-2.09-4.83-2.75-4.78-.48,0,.65,4,.4,4.35a22.52,22.52,0,0,0-2.83,13,59.41,59.41,0,0,0,2.34,12.94" style="fill:#263238"></path><path d="M415,109c.61-10.95-5.26-20.42-16.22-20.72l-1,0a19.58,19.58,0,0,0-19,18.62c-.47,9.49-.87,20-.65,25.06.45,10.51,11,11.82,11,11.82s-.28,17.29-.28,17.29L414,146.31Z" style="fill:#ffbf9d"></path><path d="M389.13,143.8a25.37,25.37,0,0,0,13.57-4.47s-3.1,8.64-13.62,8Z" style="fill:#ff9a6c"></path><path d="M381.8,115.81a1.51,1.51,0,0,0,1.5,1.47,1.43,1.43,0,0,0,1.5-1.4,1.5,1.5,0,0,0-1.49-1.48A1.44,1.44,0,0,0,381.8,115.81Z" style="fill:#263238"></path><path d="M381.14,111.21c.19.19,1.3-.68,2.92-.73s2.83.73,3,.52-.11-.44-.64-.8a4.24,4.24,0,0,0-2.41-.66,4,4,0,0,0-2.31.83C381.2,110.77,381.05,111.13,381.14,111.21Z" style="fill:#263238"></path><path d="M395.85,116.32a1.51,1.51,0,0,0,1.5,1.47,1.43,1.43,0,0,0,1.5-1.4,1.5,1.5,0,0,0-1.49-1.48A1.45,1.45,0,0,0,395.85,116.32Z" style="fill:#263238"></path><path d="M397,111.38c.19.19,1.31-.69,2.92-.74s2.83.73,3,.53-.12-.44-.65-.8a4.08,4.08,0,0,0-2.4-.66,3.87,3.87,0,0,0-2.32.83C397.05,110.93,396.9,111.29,397,111.38Z" style="fill:#263238"></path><path d="M391.58,124a11.18,11.18,0,0,0-2.64-.39c-.42,0-.81-.1-.89-.38a2.13,2.13,0,0,1,.24-1.23c.36-1,.73-2.07,1.12-3.18,1.56-4.53,2.67-8.24,2.49-8.3s-1.59,3.55-3.15,8.08c-.37,1.12-.73,2.18-1.07,3.2a2.38,2.38,0,0,0-.16,1.62,1.05,1.05,0,0,0,.69.59,2.66,2.66,0,0,0,.71.07A9.93,9.93,0,0,0,391.58,124Z" style="fill:#263238"></path><path d="M396.37,124.94c-.27,0-.21,1.75-1.68,3s-3.33,1.16-3.34,1.41.43.32,1.22.32a4.38,4.38,0,0,0,2.79-1.07,3.81,3.81,0,0,0,1.29-2.54C396.7,125.36,396.49,124.93,396.37,124.94Z" style="fill:#263238"></path><path d="M396.88,104.82c.17.43,1.78.17,3.68.34s3.45.64,3.69.24c.11-.19-.17-.6-.8-1a6.47,6.47,0,0,0-5.62-.45C397.14,104.25,396.8,104.61,396.88,104.82Z" style="fill:#263238"></path><path d="M381.64,105.82c.3.36,1.4-.06,2.74-.12s2.48.17,2.73-.22c.1-.19-.09-.55-.59-.88a3.85,3.85,0,0,0-2.24-.54,3.79,3.79,0,0,0-2.16.81C381.65,105.26,381.51,105.64,381.64,105.82Z" style="fill:#263238"></path><path d="M414.36,116.81c.17-.09,7.16-2.36,7.15,4.83s-7.23,5.71-7.25,5.5S414.36,116.81,414.36,116.81Z" style="fill:#ffbf9d"></path><path d="M416.47,124.42s.12.09.33.18a1.24,1.24,0,0,0,.94,0,3.11,3.11,0,0,0,1.44-2.78,4.12,4.12,0,0,0-.35-1.79,1.46,1.46,0,0,0-.94-1,.63.63,0,0,0-.74.35c-.1.2,0,.34-.09.35s-.16-.12-.1-.42a.86.86,0,0,1,.28-.45,1,1,0,0,1,.7-.18,1.78,1.78,0,0,1,1.31,1.12,4.32,4.32,0,0,1,.43,2c-.05,1.45-.79,2.81-1.83,3.11a1.36,1.36,0,0,1-1.15-.19C416.48,124.59,416.44,124.43,416.47,124.42Z" style="fill:#ff9a6c"></path><path d="M383.53,95c-1.16-.65,2.37-4.39,5.25-5.66,4.34-1.92,11-3.06,14.94-1.89,4.79,1.4,8.75,3.83,11.12,8.23a28.25,28.25,0,0,1,3,14.48,8.6,8.6,0,0,1-1.06,4.39c-1,1.58-3,2.56-2.9,4.76a3,3,0,0,1-.77,2.19c-1.33,1.39-2.92,0-3.65-1.27-1.56-2.84-1.7-6.21-1.81-9.44a21.21,21.21,0,0,1,.53-6.84c.36-1.19.94-2.32,1.23-3.53a4.31,4.31,0,0,0-.47-3.6,4.4,4.4,0,0,0-.58-.6A7.49,7.49,0,0,0,401,94.77c-4.07,1.39-11,3.47-12.8,2.07a11,11,0,0,1-3.19-3.3Z" style="fill:#263238"></path><path d="M403.35,86.5a15.82,15.82,0,0,0-12.16.55,8.21,8.21,0,0,0-4.39,4.74c-.62,2.12.27,4.75,2.31,5.61l.14.09c3.06,1.06,5.06.67,8.13-.36,2.58-.86,4.89-2.43,7.48-3.29a14.69,14.69,0,0,1,8.56-.16A24,24,0,0,0,403.35,86.5Z" style="fill:#263238"></path></g><g id="freepik--character-1--inject-86"><path d="M108,444.35l-.17,26.07,48.3.19c-.35-5.29-24.38-16.12-24.38-16.12l.65-10Z" style="fill:#455a64"></path><path d="M116.6,452a2.27,2.27,0,0,0-1.49,2.59,2.08,2.08,0,0,0,2.46,1.55,2.38,2.38,0,0,0,1.56-2.75,2.14,2.14,0,0,0-2.73-1.32" style="fill:#fff"></path><path d="M107.8,470.42l0-4.17,45.88,1s2.66,1.6,2.4,3.34Z" style="fill:#263238"></path><path d="M136.85,457c.06.26-1.06.73-1.94,1.88s-1.12,2.36-1.38,2.35-.44-1.54.68-2.95S136.84,456.76,136.85,457Z" style="fill:#263238"></path><path d="M140.44,464.19c-.24.06-.61-1.29.05-2.78s1.87-2.08,2-1.86-.64,1-1.16,2.25S140.7,464.16,140.44,464.19Z" style="fill:#263238"></path><path d="M132.2,447.56c-.11.25-1.31-.12-2.78,0s-2.61.61-2.75.38,1-1.21,2.69-1.32S132.33,447.35,132.2,447.56Z" style="fill:#263238"></path><path d="M133.36,456.14a3.81,3.81,0,0,0-.26-1.58,8.79,8.79,0,0,0-2.35-3.65,8.06,8.06,0,0,0-2.55-1.61,1.84,1.84,0,0,0-1.83.12,2,2,0,0,0-.63,1.92,6.94,6.94,0,0,0,6,4.82,6.82,6.82,0,0,0,6.55-3.76,4.92,4.92,0,0,0,.55-1.79,1.66,1.66,0,0,0-.24-1,1.22,1.22,0,0,0-.88-.56,2.34,2.34,0,0,0-1.59.55,10,10,0,0,0-1.05,1,11.14,11.14,0,0,0-2.28,3.62,4.16,4.16,0,0,0-.39,1.53,15.74,15.74,0,0,1,3-4.75c.61-.56,1.38-1.34,2.18-1.27.36.05.58.39.53.88a4.08,4.08,0,0,1-.51,1.48,6.15,6.15,0,0,1-5.86,3.33,6.28,6.28,0,0,1-5.38-4.15,1.29,1.29,0,0,1,.35-1.25,1.24,1.24,0,0,1,1.21-.05,7.76,7.76,0,0,1,2.4,1.41,9.13,9.13,0,0,1,2.42,3.34C133.2,455.59,133.3,456.15,133.36,456.14Z" style="fill:#263238"></path><path d="M85.64,280.11l4-5.38,49.15,1.35-7.05,87.45-4.38,84.29-25.49.89c-1.3-16.27-4.78-80.63-4.78-80.63h0l-4.37-34c-.49-2.15-2.3-12.87-4.16-21.47C87.52,307.68,83.5,294.83,85.64,280.11Z" style="fill:#263238"></path><path d="M107.78,438l-6.55,25.23,46.78,12c1-5.22-19.69-21.6-19.69-21.6l3.08-9.52Z" style="fill:#455a64"></path><path d="M112.16,447.57a2.26,2.26,0,0,0-2.07,2.15,2.08,2.08,0,0,0,2,2.11,2.39,2.39,0,0,0,2.19-2.29c-.09-1.1-1.29-2.24-2.33-2" style="fill:#fff"></path><path d="M101.23,463.24l1-4,44.23,12.23s2.19,2.19,1.51,3.82Z" style="fill:#263238"></path><path d="M132.68,457.37c0,.27-1.21.45-2.34,1.35s-1.67,2-1.92,1.94,0-1.6,1.38-2.69S132.74,457.12,132.68,457.37Z" style="fill:#263238"></path><path d="M134.4,465.2c-.24,0-.27-1.4.73-2.68s2.32-1.57,2.38-1.32-.87.83-1.68,1.9S134.66,465.23,134.4,465.2Z" style="fill:#263238"></path><path d="M130.49,447.06c-.17.21-1.24-.43-2.7-.68s-2.68-.05-2.76-.31,1.23-.94,2.94-.62S130.66,446.88,130.49,447.06Z" style="fill:#263238"></path><path d="M129.51,455.66a3.74,3.74,0,0,0,.13-1.59,8.74,8.74,0,0,0-1.38-4.12,8.08,8.08,0,0,0-2.08-2.19,1.85,1.85,0,0,0-1.81-.32,2,2,0,0,0-1.07,1.7,6.91,6.91,0,0,0,4.66,6.14,6.78,6.78,0,0,0,7.26-2,4.57,4.57,0,0,0,1-1.6,1.75,1.75,0,0,0,0-1,1.28,1.28,0,0,0-.73-.76,2.29,2.29,0,0,0-1.67.15,8.64,8.64,0,0,0-1.25.68,11.07,11.07,0,0,0-3.1,2.95,4,4,0,0,0-.75,1.39,15.29,15.29,0,0,1,4.12-3.85c.72-.4,1.67-1,2.42-.71.33.14.46.52.3,1a4,4,0,0,1-.86,1.32,6.17,6.17,0,0,1-6.5,1.78,6.28,6.28,0,0,1-4.2-5.33,1.33,1.33,0,0,1,.65-1.13,1.25,1.25,0,0,1,1.19.25,7.66,7.66,0,0,1,2,1.95,9.25,9.25,0,0,1,1.53,3.83C129.48,455.09,129.45,455.66,129.51,455.66Z" style="fill:#263238"></path><path d="M139.55,280.11s21.48,83.18,22.07,91-29.22,78.92-29.22,78.92L105,443.36l22.06-76.08s-11.65-25.2-11.39-25.94c.69-2-5.4-51.08-5.4-51.08Z" style="fill:#263238"></path><path d="M161.18,373a2.47,2.47,0,0,0-.15.38c-.1.28-.23.65-.39,1.13l-1.49,4.37c-1.29,3.8-3.2,9.31-5.67,16.14-4.93,13.66-12.26,32.53-21.3,53.55l.3-.14-12.1-3-15.29-3.73.18.32,15.41-53.22c1.91-6.67,3.44-12,4.51-15.73l1.18-4.24q.19-.7.3-1.11a3.25,3.25,0,0,0,.09-.37,1.29,1.29,0,0,0-.13.36c-.09.27-.2.63-.35,1.09-.29,1-.72,2.4-1.27,4.21-1.1,3.7-2.68,9-4.65,15.69-3.92,13.37-9.38,32-15.58,53.17l-.08.26.27.07L120.26,446l12.1,3,.21.05.09-.2c9-21,16.3-39.95,21.15-53.64,2.43-6.85,4.29-12.38,5.52-16.2.6-1.9,1.07-3.37,1.4-4.4.15-.48.26-.86.35-1.14A2.59,2.59,0,0,0,161.18,373Z" style="fill:#455a64"></path><path d="M146.09,158.74c-.12-2.55.83-5,1.63-7.43s1.47-5,.79-7.49c-.86-3.09-3.64-5.24-5.14-8.08s-1.6-6.2-1.86-9.41-.81-6.61-2.94-9c-2.69-3.06-9.74-3.61-13.07-1.25-.51,18.25-4.84,36.74-.93,54.58a48.53,48.53,0,0,0,25.68-6.14C147.75,164,146.2,161.29,146.09,158.74Z" style="fill:#263238"></path><path d="M107.18,176.39,104.66,126a3.92,3.92,0,0,1,3.38-4.07l20.58-5.82c6.62-.89,11.26,7.15,11.87,13.8.68,7.39,1.21,16.44.49,22-1.45,11.15-9.92,12.8-9.92,12.8,0,11,.24,11.8.24,11.8l-4.19,8.65Z" style="fill:#ae7461"></path><path d="M138,139.12a1.43,1.43,0,0,1-1.34,1.48,1.36,1.36,0,0,1-1.5-1.24,1.43,1.43,0,0,1,1.33-1.48A1.37,1.37,0,0,1,138,139.12Z" style="fill:#263238"></path><path d="M138.66,134.67c-.17.19-1.27-.58-2.8-.53s-2.64.85-2.81.66.09-.42.57-.79a3.91,3.91,0,0,1,4.48-.11C138.58,134.25,138.75,134.58,138.66,134.67Z" style="fill:#263238"></path><path d="M125,139.55a1.42,1.42,0,0,1-1.33,1.48,1.37,1.37,0,0,1-1.51-1.24,1.43,1.43,0,0,1,1.33-1.48A1.37,1.37,0,0,1,125,139.55Z" style="fill:#263238"></path><path d="M123.61,135.38c-.18.19-1.28-.57-2.81-.53s-2.63.85-2.8.67.08-.42.56-.79a3.89,3.89,0,0,1,2.24-.76,3.66,3.66,0,0,1,2.24.65C123.52,135,123.69,135.3,123.61,135.38Z" style="fill:#263238"></path><path d="M129.49,146.59a9.92,9.92,0,0,1,2.48-.52c.39,0,.76-.14.81-.41a2,2,0,0,0-.29-1.15c-.4-.94-.81-1.92-1.24-2.95-1.73-4.19-3-7.65-2.82-7.72s1.7,3.28,3.43,7.48l1.2,3a2.23,2.23,0,0,1,.24,1.53,1,1,0,0,1-.62.59,2.57,2.57,0,0,1-.67.12A10,10,0,0,1,129.49,146.59Z" style="fill:#263238"></path><path d="M131.06,164.69a28.2,28.2,0,0,1-15-3.54s4,7.81,15,6.45Z" style="fill:#6f4439"></path><path d="M129.37,150.24a3.78,3.78,0,0,0-3.15-1.56,2.49,2.49,0,0,0-2,1.16,2.25,2.25,0,0,0,2.62,3.3,5.69,5.69,0,0,0,2.22-1.46,1.81,1.81,0,0,0,.47-.59.79.79,0,0,0-.09-.78" style="fill:#6f4439"></path><path d="M125,147.78c.25,0,.3,1.64,1.76,2.78s3.22.91,3.24,1.14-.39.33-1.13.38a4.17,4.17,0,0,1-2.71-.86,3.58,3.58,0,0,1-1.36-2.34C124.72,148.19,124.9,147.77,125,147.78Z" style="fill:#263238"></path><path d="M124.1,129.06c-.13.42-1.67.26-3.46.53s-3.23.8-3.48.43c-.11-.17.13-.57.7-1a5.84,5.84,0,0,1,2.56-1,5.77,5.77,0,0,1,2.73.24C123.82,128.54,124.16,128.86,124.1,129.06Z" style="fill:#e0e0e0"></path><path d="M138,129.41c-.26.36-1.32,0-2.59.05s-2.34.3-2.6-.06c-.11-.18.05-.53.51-.87a3.76,3.76,0,0,1,4.18,0C137.93,128.88,138.09,129.24,138,129.41Z" style="fill:#263238"></path><path d="M131.07,116c-1.9-4.57-6-5.53-10.45-6s-11,1.35-14.64,3.75a33.78,33.78,0,0,0-8.1,6.86c-2,2.53-2.84,5.43-4.06,8.34-1.89,4.54-1.77,9.57-2,14.44a87.21,87.21,0,0,1-2.92,18.14c-.58,2.13-1.17,4.68,1.84,5.9a7,7,0,0,0,1.76.43c4.68.56,9.2,2.08,14.4,2.41h3.21c4.07,0,6.15-2.61,6-5.93-.42-10-5.31-26.51-5.85-29.67C110.23,134.69,108.54,113.06,131.07,116Z" style="fill:#263238"></path><path d="M129.6,115.92a6.56,6.56,0,0,0-2.34,4.58c-.23,1.75-.13,3.54-.46,5.27a11,11,0,0,1-6.35,8c-1,.45-2.45.63-3.09-.3a6.1,6.1,0,0,1-3.71,5.81c-1.65.67-3.49.56-5.22,1s-3.55,1.57-3.64,3.34l-.73-12.32,3.47-10.91L118.18,114Z" style="fill:#263238"></path><path d="M110.72,136.24a6.25,6.25,0,0,0,2.7-3.93,25.69,25.69,0,0,0,.74-5.25,42.55,42.55,0,0,1,.75-6.5,12.39,12.39,0,0,1,2.91-5.82,7.3,7.3,0,0,1,2.32-1.67,7.09,7.09,0,0,1,2.43-.6,5.69,5.69,0,0,1,3.47.83,2.61,2.61,0,0,1,.46.33,3.09,3.09,0,0,1,.31.28,2.45,2.45,0,0,1,.23.26,8,8,0,0,0-1-.8,5.71,5.71,0,0,0-3.42-.75,6.94,6.94,0,0,0-4.62,2.26,12.21,12.21,0,0,0-2.84,5.73,44.38,44.38,0,0,0-.77,6.46,24.54,24.54,0,0,1-.79,5.28,7.23,7.23,0,0,1-1.77,3.12A3.84,3.84,0,0,1,110.72,136.24Z" style="fill:#fff"></path><path d="M101.46,134.75a6.24,6.24,0,0,0,1.63-.4,8.45,8.45,0,0,0,3.4-3,16.65,16.65,0,0,0,1.56-2.76,12.29,12.29,0,0,0,.87-3.51c.16-1.27.21-2.63.36-4a17.62,17.62,0,0,1,.34-2.12,11.86,11.86,0,0,1,.7-2.11,11.37,11.37,0,0,1,6-5.73,10.73,10.73,0,0,1,6.77-.46,11,11,0,0,1,4.15,2,8.67,8.67,0,0,1,1.23,1.15s0,0-.08-.07a2.19,2.19,0,0,1-.24-.22l-.4-.35c-.16-.13-.34-.29-.56-.45a11.43,11.43,0,0,0-4.14-1.93,10.7,10.7,0,0,0-6.66.5,11.23,11.23,0,0,0-5.84,5.64,12.26,12.26,0,0,0-.69,2.07,19.12,19.12,0,0,0-.34,2.1c-.15,1.39-.2,2.74-.36,4a12.25,12.25,0,0,1-.91,3.55,15.4,15.4,0,0,1-1.6,2.77,8.5,8.5,0,0,1-3.49,3,5.24,5.24,0,0,1-1.22.3l-.33,0Z" style="fill:#455a64"></path><path d="M117.36,133.42a.75.75,0,0,1,0,.11l0,.31a3.58,3.58,0,0,1-.06.49c0,.2-.08.43-.13.68a7.44,7.44,0,0,1-.71,1.76,6.11,6.11,0,0,1-1.68,1.89,10,10,0,0,1-6.4,1.58,18.23,18.23,0,0,1-4-.61,15.93,15.93,0,0,1-4-1.63l-.25-.15.29,0a15.47,15.47,0,0,0,4.64-1.44l.08,0,.06.19a14.7,14.7,0,0,1-9.6-1.72l-.19-.11.21-.07a18.09,18.09,0,0,0,5.69-2.88,9.16,9.16,0,0,0,3-4,9.43,9.43,0,0,0,.48-3.22c0-.37,0-.66-.06-.87s0-.17,0-.23v-.07s0,0,0,.07l0,.22c0,.22.06.51.1.88a9,9,0,0,1-.44,3.26,9.29,9.29,0,0,1-3,4,18.35,18.35,0,0,1-5.74,2.94v-.18a14.68,14.68,0,0,0,9.48,1.69l.71-.12-.65.31-.08,0a15.79,15.79,0,0,1-4.7,1.46l0-.2a15.73,15.73,0,0,0,4,1.62,18.54,18.54,0,0,0,3.92.62,9.9,9.9,0,0,0,6.31-1.51,6.17,6.17,0,0,0,1.67-1.83,7.36,7.36,0,0,0,.72-1.73l.16-.67c0-.19.05-.36.08-.49l0-.3C117.35,133.46,117.36,133.42,117.36,133.42Z" style="fill:#455a64"></path><path d="M94.56,163.77s.62-5.94,1.51-13.25,1.66-13.24,1.72-13.24-.62,5.94-1.51,13.26S94.62,163.78,94.56,163.77Z" style="fill:#455a64"></path><path d="M200.1,161.47,183,176.77a1.71,1.71,0,0,0-.16,2.47h0a1.63,1.63,0,0,0,2.28.14l17-15.38,1.62-3.53Z" style="fill:#263238"></path><path d="M202.11,160.92l1,1-.92,2a.8.8,0,0,1-.91-.87.71.71,0,0,1-.83-.88s-.68,0-.32-.77Z" style="fill:#455a64"></path><path d="M180.22,205.17l-.57-.1,11.71-20.48-1.85-5.9s-2.14-8.41-.36-10.56c0,0,3.92-4.6,5.19-4.54s2.28.32,2.54,1.27c0,0,2.15-.25,2.72.45a10,10,0,0,1,1,1.52s2.35-.19,3,1.84c0,0,2.22,1.14,2.41,2.79s-.44,9.33-1.14,11.3-3.3,6.09-4.06,12.18-3.45,10.05-5.83,19l-6.48,2.56Z" style="fill:#ae7461"></path><path d="M199.61,172.53c0,.14.89,0,1.76.4s1.31,1.16,1.44,1.09-.12-1-1.22-1.56S199.53,172.41,199.61,172.53Z" style="fill:#6f4439"></path><path d="M196,170.46c0,.14.69,0,1.31.35s.82,1,1,.95.12-.2,0-.5a1.57,1.57,0,0,0-.74-.9,1.64,1.64,0,0,0-1.16-.18C196.09,170.26,196,170.4,196,170.46Z" style="fill:#6f4439"></path><path d="M191.94,167.9c0,.14.8,0,1.56.4s1,1.14,1.18,1.09.09-.23,0-.55a2,2,0,0,0-2.21-1.21C192.09,167.7,191.92,167.84,191.94,167.9Z" style="fill:#6f4439"></path><path d="M201.51,171.38c.12.08.61-.51,1.16-1.25s1-1.37.88-1.47-.72.38-1.29,1.15S201.39,171.31,201.51,171.38Z" style="fill:#6f4439"></path><path d="M198.32,169.49c.14.06.51-.63,1.11-1.35s1.21-1.2,1.13-1.33-.87.2-1.53,1S198.19,169.45,198.32,169.49Z" style="fill:#6f4439"></path><path d="M194.64,167.3c.15,0,.47-.64,1.1-1.3s1.28-1,1.22-1.18-.89.06-1.6.83S194.51,167.27,194.64,167.3Z" style="fill:#6f4439"></path><path d="M89.34,186.73a19.32,19.32,0,0,0-6.06,11c-2.2,12.66-6.77,39.49-6.51,42.39C77.12,243.93,79,250,83.36,251a19,19,0,0,0,8.31,0l3-69.15Z" style="fill:#e0e0e0"></path><path d="M89.12,257.1l.06-67.86s1-2.77,4.95-6.84c1.83-1.87,10.49-7.91,10.49-7.91l.73-4.48c2.78-2.16,7.75-3.54,11.26-3.49,11.43.15,18.36,5.26,18.36,5.26l1.12,4.42,5.58,1.59,9.06,37.08,3.19,50.46,9.39,102.91-83.5-1.91,2.47-67.4a121.93,121.93,0,0,1,2.39-20Z" style="fill:#e0e0e0"></path><path d="M134.55,177.26s6.17.39,6.72.52c1.91.44,7.15,5.25,13.13,11.17,5.7,5.66,16.91,17.42,16.91,17.42s2-2,4.32.68l13.64-21.68s11.72-.06,13.81,10c0,0-7.3,18.27-10.63,23.83,0,0-12.35,20.5-22.11,16.79-8.91-3.39-20.08-12.46-21.66-14.4l-13.11-9.36s-12.14-17.9-8.17-26.47S134.55,177.26,134.55,177.26Z" style="fill:#e0e0e0"></path><path d="M136.09,176.2a1.31,1.31,0,0,1-.32-.06l-.89-.24c-.78-.2-1.91-.47-3.32-.74a94.92,94.92,0,0,0-11.13-1.37,76.11,76.11,0,0,0-11.21,0c-1.43.12-2.58.3-3.37.44l-.91.18a1.07,1.07,0,0,1-.32,0,1.56,1.56,0,0,1,.31-.09l.9-.23a27.42,27.42,0,0,1,3.37-.53,68,68,0,0,1,11.25-.11A82.12,82.12,0,0,1,131.6,175c1.41.29,2.53.59,3.31.82l.88.28Z" style="fill:#263238"></path><g style="opacity:0.30000000000000004"><path d="M104.82,174.44c9.44,1.67,19,0,29,1.2-9.64-2-19.68-2.94-29-1.2"></path></g><path d="M133.81,210.25a1.76,1.76,0,0,0,.24.21l.74.58,2.88,2.25,10.92,8.4h0a99,99,0,0,0,11.67,9.12,59.15,59.15,0,0,0,7.6,4.32c.68.34,1.4.62,2.12.92a10.16,10.16,0,0,0,1.14.38,11.55,11.55,0,0,0,1.2.19,10.12,10.12,0,0,0,4.78-1,28.28,28.28,0,0,0,8-6.31,67.45,67.45,0,0,0,6.64-8.5,40,40,0,0,0,2.74-4.88c.83-1.68,1.62-3.41,2.41-5.16,1.56-3.5,3.08-7.09,4.59-10.75l1.85-4.54,0-.08,0-.07a12.35,12.35,0,0,0-1.88-4.41,12,12,0,0,0-3.42-3.25,18,18,0,0,0-8.76-2.52h-.14l-.07.12-13.62,21.7.36,0a4.08,4.08,0,0,0-2.19-1.44,2.83,2.83,0,0,0-2.45.75h.31L159.52,194l-5-5.08c-1.56-1.54-3-2.94-4.33-4.18a76.46,76.46,0,0,0-6.37-5.5A12.64,12.64,0,0,0,142,178a2.58,2.58,0,0,0-.53-.21l-.18,0s.25.06.68.31a13.19,13.19,0,0,1,1.82,1.23c1.53,1.18,3.66,3.07,6.28,5.58,1.31,1.25,2.74,2.66,4.29,4.21l4.93,5.11,11.89,12.3.14.15.16-.15a2.45,2.45,0,0,1,2.07-.62,3.59,3.59,0,0,1,1.92,1.3l.2.23.16-.26c4.2-6.65,8.79-13.92,13.67-21.67l-.21.12a17.55,17.55,0,0,1,8.48,2.45,11.3,11.3,0,0,1,3.28,3.11,12,12,0,0,1,1.8,4.22v-.15L201,199.79c-1.51,3.65-3,7.24-4.59,10.73-.78,1.74-1.56,3.47-2.39,5.15a38.31,38.31,0,0,1-2.71,4.82,66.42,66.42,0,0,1-6.56,8.45,27.92,27.92,0,0,1-7.84,6.22,9.61,9.61,0,0,1-4.56,1,8.56,8.56,0,0,1-1.13-.17,9.12,9.12,0,0,1-1.08-.36c-.71-.29-1.42-.57-2.1-.9a59.79,59.79,0,0,1-7.56-4.26,99,99,0,0,1-11.68-9h0l-11-8.28L134.84,211l-.76-.56C133.91,210.3,133.82,210.24,133.81,210.25Z" style="fill:#263238"></path><path d="M128.22,202.83c.09-.05-1-1.55-2-4.28a18.19,18.19,0,0,1-.74-11.15,14.1,14.1,0,0,1,3-5.41,13.36,13.36,0,0,1,4-3.11,15.22,15.22,0,0,1,4.51-1.31s-.11,0-.33,0a7,7,0,0,0-1,0,10.42,10.42,0,0,0-3.39,1,13.18,13.18,0,0,0-4.19,3.12,14.27,14.27,0,0,0-3.12,5.59,16.54,16.54,0,0,0-.43,6.38,19.26,19.26,0,0,0,1.34,5,18.37,18.37,0,0,0,1.62,3.12A5.56,5.56,0,0,0,128.22,202.83Z" style="fill:#263238"></path><path d="M174.82,217.8a18.37,18.37,0,0,0,.77-10.87c-.16,0,.14,2.46-.08,5.46S174.67,217.76,174.82,217.8Z" style="fill:#263238"></path><path d="M170.52,217.8a14,14,0,0,0,1.21-5.38,14.16,14.16,0,0,0-.44-5.49c-.16,0,.15,2.46-.08,5.46S170.37,217.76,170.52,217.8Z" style="fill:#263238"></path><path d="M89.18,192.32c-.15,0-.21,14.23-.13,31.77s.24,31.77.38,31.77.21-14.22.14-31.77S89.32,192.32,89.18,192.32Z" style="fill:#263238"></path><path d="M146.06,368.24a2.29,2.29,0,0,0,0-.39c0-.29,0-.67,0-1.16,0-1.05-.08-2.55-.14-4.46-.14-3.9-.35-9.49-.61-16.39-.56-13.87-1.34-33-2.19-54.07s-1.75-40.21-2.35-54.07c-.33-6.9-.59-12.49-.78-16.39-.1-1.91-.18-3.4-.23-4.45,0-.49-.06-.87-.08-1.16a2.33,2.33,0,0,0,0-.39,2.38,2.38,0,0,0,0,.4c0,.28,0,.67,0,1.16,0,1,.08,2.54.14,4.45.15,3.9.35,9.49.61,16.39.56,13.87,1.34,33,2.2,54.08s1.74,40.21,2.35,54.07c.32,6.89.58,12.48.77,16.38.1,1.91.18,3.41.23,4.45,0,.49.06.88.08,1.16A2.33,2.33,0,0,0,146.06,368.24Z" style="fill:#263238"></path><path d="M89.43,255.86a6.24,6.24,0,0,0,1.31.32c.84.18,2.07.39,3.6.61a86.07,86.07,0,0,0,12,.86,83.15,83.15,0,0,0,12-.86c1.52-.22,2.75-.43,3.6-.61a6.31,6.31,0,0,0,1.3-.33A6.82,6.82,0,0,0,122,256c-.86.12-2.09.27-3.62.45a102.05,102.05,0,0,1-24,0L90.77,256A7.28,7.28,0,0,0,89.43,255.86Z" style="fill:#263238"></path><path d="M104.62,174.49l-.22.1-.64.33c-.56.3-1.37.77-2.38,1.43a78.46,78.46,0,0,0-8.11,6.16,59.75,59.75,0,0,0-5.08,4.88,19.21,19.21,0,0,0-2.39,3.14,12.61,12.61,0,0,0-.85,1.91c-.21.66-.44,1.33-.64,2-1.57,5.48-2.79,11.61-4,18.06s-2.13,12.63-2.85,18.26c-.35,2.82-.66,5.51-.87,8a15.38,15.38,0,0,0,.78,7,8.66,8.66,0,0,0,3.88,4.31,12.44,12.44,0,0,0,4.19,1.34,13.8,13.8,0,0,0,2.77.14c.31,0,.55,0,.72-.05a.68.68,0,0,0,.24,0s-.33,0-1,0a16.21,16.21,0,0,1-2.73-.24,12.64,12.64,0,0,1-4.08-1.39,8.4,8.4,0,0,1-3.68-4.2,15,15,0,0,1-.69-6.83c.23-2.51.55-5.18.92-8,.74-5.63,1.73-11.79,2.89-18.24s2.4-12.57,3.93-18c.2-.68.42-1.34.63-2a12.05,12.05,0,0,1,.8-1.83,18.26,18.26,0,0,1,2.32-3.08,56.79,56.79,0,0,1,5-4.89,85.11,85.11,0,0,1,8-6.27c1-.68,1.77-1.18,2.31-1.51l.61-.37C104.56,174.55,104.63,174.5,104.62,174.49Z" style="fill:#263238"></path><path d="M89.12,257.1s-.05.17-.13.52-.19.86-.34,1.52c-.3,1.35-.73,3.33-1.29,5.9s-1.23,5.77-2,9.48-1.82,8-2.5,12.79c-.34,2.41-.61,5-.75,7.63s-.2,5.47-.31,8.37c-.21,5.81-.43,12.07-.66,18.73-.47,13.31-1,28.22-1.54,44.29v.24h.24L139.2,368l24.1.55h.29l0-.29c-3.59-41-6.76-77.12-9-103.07-1.16-12.95-2.09-23.35-2.73-30.53-.33-3.57-.58-6.34-.76-8.23q-.13-1.39-.21-2.13c-.05-.48-.08-.72-.08-.72s0,.24,0,.72.1,1.21.17,2.14c.15,1.89.37,4.66.66,8.24.61,7.18,1.49,17.58,2.58,30.54,2.23,25.95,5.33,62.13,8.85,103.09l.27-.28-24.11-.56-59.39-1.34.23.25c.54-16.07,1-31,1.47-44.29.21-6.65.42-12.91.61-18.72.09-2.91.19-5.7.28-8.37s.38-5.21.71-7.61c.66-4.81,1.71-9.05,2.44-12.78s1.43-6.9,2-9.49.93-4.57,1.21-5.93l.3-1.53Z" style="fill:#263238"></path><path d="M146.06,275.62H159s6,37.08-.51,39.5a7,7,0,0,1-9.17-3.22Z" style="fill:#e0e0e0"></path><path d="M146.06,275.62a5.68,5.68,0,0,0,0,.67c0,.5.09,1.16.15,2,.14,1.8.34,4.34.6,7.52.55,6.51,1.31,15.6,2.2,26.11V312l0,0a8.06,8.06,0,0,0,2.21,2.59,6.73,6.73,0,0,0,3.25,1.32,7.94,7.94,0,0,0,3.58-.41,3.41,3.41,0,0,0,.88-.36,3,3,0,0,0,.72-.66,5.8,5.8,0,0,0,.89-1.66,22,22,0,0,0,1-5.48c.13-1.82.16-3.61.14-5.36,0-3.5-.27-6.86-.54-10-.57-6.33-1.33-11.89-2.05-16.37l0-.15H159l-9.54.1-2.52,0-.64,0h-.21a.73.73,0,0,0,.24,0l.68,0,2.56,0,9.43.1-.17-.15c.66,4.48,1.38,10.05,1.92,16.36.26,3.16.47,6.5.5,10,0,1.74,0,3.51-.15,5.31a21.65,21.65,0,0,1-1,5.34c-.41,1.09-1,2.15-2.16,2.36a7.43,7.43,0,0,1-3.35.4,6.76,6.76,0,0,1-5.08-3.62l0,.09c-1-10.43-1.82-19.45-2.43-25.91-.31-3.2-.56-5.77-.74-7.58-.09-.86-.16-1.53-.21-2A6.19,6.19,0,0,0,146.06,275.62Z" style="fill:#263238"></path></g></svg>